<svg width="478" height="120" viewBox="0 0 478 120" fill="none" xmlns="http://www.w3.org/2000/svg">
<g clip-path="url(#clip0_216_144)">
<path fill-rule="evenodd" clip-rule="evenodd" d="M61.11 17.0601C65.4 12.5901 68.4 8.73009 75 7.97009C87.4 6.54009 98.8 19.2401 92.54 31.7301C90.76 35.3001 87.13 39.5301 83.12 43.7301C78.71 48.2901 73.84 52.7301 70.42 56.1401L61.11 65.3801L53.42 57.9701C44.17 49.0601 29.07 37.8301 28.57 23.9701C28.23 14.1501 35.91 7.91009 44.75 8.02009C52.65 8.13009 55.97 12.0201 61.11 17.0201V17.0601ZM90.55 101.55H91.32C91.6064 101.55 91.8811 101.664 92.0837 101.866C92.2862 102.069 92.4 102.344 92.4 102.63V111.1C92.4 111.387 92.2862 111.661 92.0837 111.864C91.8811 112.066 91.6064 112.18 91.32 112.18H66.61C66.3236 112.18 66.0489 112.066 65.8463 111.864C65.6438 111.661 65.53 111.387 65.53 111.1V102.59C65.53 102.304 65.6438 102.029 65.8463 101.826C66.0489 101.624 66.3236 101.51 66.61 101.51C73.85 101.51 83.61 100.94 90.55 101.51V101.55ZM89.72 99.3701H66.62C66.3397 99.3521 66.0777 99.2245 65.8906 99.0149C65.7035 98.8054 65.6063 98.5307 65.62 98.2501C65.71 96.2501 65.89 94.3201 66.09 92.3201C66.29 90.6501 66.46 89.1901 66.68 87.9201C66.8646 86.7172 67.1763 85.5372 67.61 84.4001C68.054 83.2908 68.6643 82.2556 69.42 81.3301C70.3507 80.1896 71.3925 79.1444 72.53 78.2101C73.36 77.5201 74.1 76.9301 74.98 76.3101L75.86 75.7801L79.31 73.8601C81.4258 72.808 83.4762 71.6292 85.45 70.3301C87.9727 68.5404 90.3501 66.5542 92.56 64.3901C94.33 62.8601 96.83 60.8601 98.4 59.2301C99.3105 58.1185 100.374 57.142 101.56 56.3301C102.487 55.6526 103.612 55.301 104.76 55.3301C105.018 55.3541 105.271 55.4182 105.51 55.5201C105.714 55.6114 105.906 55.7291 106.08 55.8701L106.17 55.9601C106.371 56.1455 106.537 56.3657 106.66 56.6101C106.771 56.8234 106.858 57.048 106.92 57.2801C107.101 58.1928 106.996 59.139 106.62 59.9901C106.252 60.9085 105.701 61.7422 105 62.4401L90.29 78.8601C90.1476 79.0168 90.0555 79.2126 90.0254 79.4222C89.9953 79.6318 90.0287 79.8456 90.1212 80.036C90.2138 80.2265 90.3612 80.3848 90.5446 80.4907C90.7279 80.5966 90.9388 80.6451 91.15 80.6301C91.4085 80.616 91.6534 80.5096 91.84 80.3301C96.68 74.8768 101.553 69.4434 106.46 64.0301C106.819 63.6844 107.154 63.3135 107.46 62.9201C107.737 62.5658 107.988 62.1914 108.21 61.8001C110.77 57.7301 114.55 46.9001 116.66 41.8701L116.86 41.5601C117.247 41.1412 117.688 40.7747 118.17 40.4701H118.23C118.702 40.1805 119.23 39.9963 119.78 39.9301C120.032 39.8897 120.288 39.8897 120.54 39.9301C120.763 39.9802 120.979 40.0609 121.18 40.1701L121.29 40.2301C121.563 40.3958 121.803 40.6092 122 40.8601C122.178 41.1259 122.326 41.411 122.44 41.7101C122.875 43.0479 122.998 44.4674 122.8 45.8601C122.56 47.6905 122.128 49.4905 121.51 51.2301C120.18 55.7801 118.89 60.3701 117.65 64.9601C117.088 67.4563 116.274 69.8888 115.22 72.2201C113.806 74.8892 112.052 77.3633 110 79.5801C107.65 82.2801 105.34 84.7101 103.09 86.9601C100.84 89.2101 98.61 91.3201 96.45 93.3601L90.6 98.9801C90.4987 99.102 90.3719 99.2002 90.2284 99.2676C90.085 99.335 89.9285 99.37 89.77 99.3701H89.72ZM56.21 99.3701H33.16C33.0015 99.37 32.845 99.335 32.7015 99.2676C32.5581 99.2002 32.4313 99.102 32.33 98.9801L29.53 96.2501L26.44 93.3201C24.24 91.2401 22 89.1201 19.84 86.9601C17.59 84.7201 15.3 82.3001 12.97 79.6201C10.8979 77.4027 9.12303 74.9253 7.69 72.2501C6.63943 69.9183 5.82859 67.4858 5.27 64.9901C4 60.3801 2.74 55.7501 1.37 51.2301C0.75057 49.491 0.318131 47.6908 0.0800004 45.8601C-0.127 44.4723 -0.010642 43.0555 0.42 41.7201C0.529978 41.4161 0.677808 41.1271 0.86 40.8601C1.04199 40.59 1.27256 40.356 1.54 40.1701L1.66 40.1101C1.85914 39.9942 2.07503 39.9099 2.3 39.8601C2.5517 39.8194 2.8083 39.8194 3.06 39.8601C3.61028 39.9231 4.13969 40.1075 4.61 40.4001H4.68C5.16847 40.7122 5.6125 41.089 6 41.5201L6.2 41.8401C8.3 46.8401 12.13 57.7801 14.66 61.7701C14.8812 62.1548 15.1355 62.5196 15.42 62.8601C15.7259 63.2383 16.0602 63.5927 16.42 63.9201C21.42 68.9201 26.14 75.0201 31.05 80.2201C31.2486 80.4 31.507 80.4996 31.775 80.4996C32.043 80.4996 32.3014 80.4 32.5 80.2201C32.6091 80.1293 32.6976 80.0164 32.7596 79.8888C32.8217 79.7613 32.8559 79.6219 32.86 79.4801C32.87 79.3409 32.8522 79.2011 32.8075 79.0689C32.7629 78.9367 32.6923 78.8147 32.6 78.7101L17.88 62.4401C17.1631 61.7739 16.5912 60.9672 16.2 60.0701C15.8142 59.2217 15.7091 58.2723 15.9 57.3601C15.9578 57.1266 16.0452 56.9015 16.16 56.6901C16.2802 56.4411 16.4465 56.2172 16.65 56.0301C16.8467 55.8538 17.0693 55.7088 17.31 55.6001C17.5467 55.5029 17.7957 55.4389 18.05 55.4101H18.11C19.2578 55.381 20.383 55.7326 21.31 56.4101C22.4942 57.22 23.5552 58.1967 24.46 59.3101C26.15 61.0801 28.46 62.7801 30.3 64.5001C32.5142 66.6594 34.8912 68.6453 37.41 70.4401C39.3911 71.6999 41.4446 72.8419 43.56 73.8601L47 75.7201L47.87 76.2601C48.75 76.8801 49.5 77.4801 50.32 78.1601C51.4629 79.0919 52.5082 80.1372 53.44 81.2801C54.1926 82.2059 54.7996 83.2412 55.24 84.3501C55.669 85.4887 55.9806 86.6682 56.17 87.8701C56.38 89.1401 56.56 90.6001 56.75 92.2701C56.96 94.2701 57.12 96.1901 57.23 98.1901C57.2464 98.4724 57.1505 98.7496 56.9631 98.9614C56.7757 99.1731 56.5122 99.3021 56.23 99.3201L56.21 99.3701ZM32.12 101.53C38.99 102.14 49.04 101.53 56.26 101.53C56.5464 101.53 56.8211 101.644 57.0237 101.846C57.2262 102.049 57.34 102.324 57.34 102.61V111.08C57.34 111.367 57.2262 111.641 57.0237 111.844C56.8211 112.046 56.5464 112.16 56.26 112.16H31.55C31.4086 112.16 31.2687 112.132 31.1382 112.078C31.0077 112.023 30.8893 111.944 30.7898 111.843C30.6903 111.743 30.6117 111.624 30.5586 111.493C30.5054 111.362 30.4787 111.221 30.48 111.08V102.59C30.4787 102.449 30.5054 102.309 30.5586 102.178C30.6117 102.047 30.6903 101.927 30.7898 101.827C30.8893 101.727 31.0077 101.647 31.1382 101.592C31.2687 101.538 31.4086 101.51 31.55 101.51H32.12V101.53ZM59 25.3801H63.79C64.2206 25.3801 64.6337 25.5504 64.9391 25.854C65.2445 26.1575 65.4174 26.5695 65.42 27.0001V32.2101H70.63C70.8483 32.2061 71.0651 32.2459 71.2677 32.3273C71.4702 32.4086 71.6544 32.5299 71.8092 32.6838C71.964 32.8376 72.0864 33.0211 72.169 33.2231C72.2516 33.4252 72.2927 33.6418 72.29 33.8601V38.6401C72.29 39.0707 72.1197 39.4838 71.8161 39.7892C71.5126 40.0946 71.1006 40.2675 70.67 40.2701H65.46V45.3401C65.4574 45.7716 65.2848 46.1847 64.9797 46.4898C64.6746 46.7949 64.2615 46.9675 63.83 46.9701H59C58.5694 46.9675 58.1574 46.7946 57.8539 46.4892C57.5504 46.1838 57.38 45.7707 57.38 45.3401V40.2501H52.21C51.7785 40.2475 51.3654 40.0749 51.0603 39.7698C50.7552 39.4647 50.5826 39.0516 50.58 38.6201V33.8601C50.5826 33.4295 50.7555 33.0175 51.0609 32.714C51.3663 32.4104 51.7794 32.2401 52.21 32.2401H57.42V27.0001C57.4224 26.578 57.5884 26.1734 57.8831 25.8712C58.1778 25.5691 58.5781 25.393 59 25.3801Z" fill="#2C3A40"/>
</g>
<line x1="154.38" y1="2.5" x2="154.38" y2="117.5" stroke="#2C3A40" stroke-width="5" stroke-linecap="round"/>
<path d="M199.408 26.4C202.384 26.4 204.96 26.896 207.136 27.888C209.344 28.88 211.04 30.288 212.224 32.112C213.408 33.936 214 36.096 214 38.592C214 41.056 213.408 43.216 212.224 45.072C211.04 46.896 209.344 48.304 207.136 49.296C204.96 50.256 202.384 50.736 199.408 50.736H192.64V60H184.864V26.4H199.408ZM198.976 44.4C201.312 44.4 203.088 43.904 204.304 42.912C205.52 41.888 206.128 40.448 206.128 38.592C206.128 36.704 205.52 35.264 204.304 34.272C203.088 33.248 201.312 32.736 198.976 32.736H192.64V44.4H198.976ZM231.265 60.384C228.545 60.384 226.097 59.824 223.921 58.704C221.777 57.552 220.097 55.968 218.881 53.952C217.665 51.936 217.057 49.648 217.057 47.088C217.057 44.528 217.665 42.24 218.881 40.224C220.097 38.208 221.777 36.64 223.921 35.52C226.097 34.368 228.545 33.792 231.265 33.792C233.985 33.792 236.417 34.368 238.561 35.52C240.705 36.64 242.385 38.208 243.601 40.224C244.817 42.24 245.425 44.528 245.425 47.088C245.425 49.648 244.817 51.936 243.601 53.952C242.385 55.968 240.705 57.552 238.561 58.704C236.417 59.824 233.985 60.384 231.265 60.384ZM231.265 54.24C233.185 54.24 234.753 53.6 235.969 52.32C237.217 51.008 237.841 49.264 237.841 47.088C237.841 44.912 237.217 43.184 235.969 41.904C234.753 40.592 233.185 39.936 231.265 39.936C229.345 39.936 227.761 40.592 226.513 41.904C225.265 43.184 224.641 44.912 224.641 47.088C224.641 49.264 225.265 51.008 226.513 52.32C227.761 53.6 229.345 54.24 231.265 54.24ZM250.43 24.384H257.918V60H250.43V24.384ZM264.867 34.176H272.355V60H264.867V34.176ZM268.611 30.576C267.235 30.576 266.115 30.176 265.251 29.376C264.387 28.576 263.955 27.584 263.955 26.4C263.955 25.216 264.387 24.224 265.251 23.424C266.115 22.624 267.235 22.224 268.611 22.224C269.987 22.224 271.107 22.608 271.971 23.376C272.835 24.144 273.267 25.104 273.267 26.256C273.267 27.504 272.835 28.544 271.971 29.376C271.107 30.176 269.987 30.576 268.611 30.576ZM291.785 60.384C289.033 60.384 286.553 59.824 284.345 58.704C282.169 57.552 280.457 55.968 279.209 53.952C277.993 51.936 277.385 49.648 277.385 47.088C277.385 44.528 277.993 42.24 279.209 40.224C280.457 38.208 282.169 36.64 284.345 35.52C286.553 34.368 289.033 33.792 291.785 33.792C294.505 33.792 296.873 34.368 298.889 35.52C300.937 36.64 302.425 38.256 303.353 40.368L297.545 43.488C296.201 41.12 294.265 39.936 291.737 39.936C289.785 39.936 288.169 40.576 286.889 41.856C285.609 43.136 284.969 44.88 284.969 47.088C284.969 49.296 285.609 51.04 286.889 52.32C288.169 53.6 289.785 54.24 291.737 54.24C294.297 54.24 296.233 53.056 297.545 50.688L303.353 53.856C302.425 55.904 300.937 57.504 298.889 58.656C296.873 59.808 294.505 60.384 291.785 60.384ZM307.477 24.384H314.965V60H307.477V24.384ZM321.914 34.176H329.402V60H321.914V34.176ZM327.77 23.952H335.834L327.146 30.864H321.29L327.77 23.952ZM352.048 33.792C355.248 33.792 357.824 34.752 359.776 36.672C361.76 38.592 362.752 41.44 362.752 45.216V60H355.264V46.368C355.264 44.32 354.816 42.8 353.92 41.808C353.024 40.784 351.728 40.272 350.032 40.272C348.144 40.272 346.64 40.864 345.52 42.048C344.4 43.2 343.84 44.928 343.84 47.232V60H336.352V34.176H343.504V37.2C344.496 36.112 345.728 35.28 347.2 34.704C348.672 34.096 350.288 33.792 352.048 33.792ZM369.539 34.176H377.027V60H369.539V34.176ZM373.283 30.576C371.907 30.576 370.787 30.176 369.923 29.376C369.059 28.576 368.627 27.584 368.627 26.4C368.627 25.216 369.059 24.224 369.923 23.424C370.787 22.624 371.907 22.224 373.283 22.224C374.659 22.224 375.779 22.608 376.643 23.376C377.507 24.144 377.939 25.104 377.939 26.256C377.939 27.504 377.507 28.544 376.643 29.376C375.779 30.176 374.659 30.576 373.283 30.576ZM396.457 60.384C393.705 60.384 391.225 59.824 389.017 58.704C386.841 57.552 385.129 55.968 383.881 53.952C382.665 51.936 382.057 49.648 382.057 47.088C382.057 44.528 382.665 42.24 383.881 40.224C385.129 38.208 386.841 36.64 389.017 35.52C391.225 34.368 393.705 33.792 396.457 33.792C399.177 33.792 401.545 34.368 403.561 35.52C405.609 36.64 407.097 38.256 408.025 40.368L402.217 43.488C400.873 41.12 398.937 39.936 396.409 39.936C394.457 39.936 392.841 40.576 391.561 41.856C390.281 43.136 389.641 44.88 389.641 47.088C389.641 49.296 390.281 51.04 391.561 52.32C392.841 53.6 394.457 54.24 396.409 54.24C398.969 54.24 400.905 53.056 402.217 50.688L408.025 53.856C407.097 55.904 405.609 57.504 403.561 58.656C401.545 59.808 399.177 60.384 396.457 60.384ZM422.752 33.792C426.752 33.792 429.824 34.752 431.968 36.672C434.112 38.56 435.184 41.424 435.184 45.264V60H428.176V56.784C426.768 59.184 424.144 60.384 420.304 60.384C418.32 60.384 416.592 60.048 415.12 59.376C413.68 58.704 412.576 57.776 411.808 56.592C411.04 55.408 410.656 54.064 410.656 52.56C410.656 50.16 411.552 48.272 413.344 46.896C415.168 45.52 417.968 44.832 421.744 44.832H427.696C427.696 43.2 427.2 41.952 426.208 41.088C425.216 40.192 423.728 39.744 421.744 39.744C420.368 39.744 419.008 39.968 417.664 40.416C416.352 40.832 415.232 41.408 414.304 42.144L411.616 36.912C413.024 35.92 414.704 35.152 416.656 34.608C418.64 34.064 420.672 33.792 422.752 33.792ZM422.176 55.344C423.456 55.344 424.592 55.056 425.584 54.48C426.576 53.872 427.28 52.992 427.696 51.84V49.2H422.56C419.488 49.2 417.952 50.208 417.952 52.224C417.952 53.184 418.32 53.952 419.056 54.528C419.824 55.072 420.864 55.344 422.176 55.344ZM450.649 60.384C448.505 60.384 446.409 60.128 444.361 59.616C442.313 59.072 440.681 58.4 439.465 57.6L441.961 52.224C443.113 52.96 444.505 53.568 446.137 54.048C447.769 54.496 449.369 54.72 450.937 54.72C454.105 54.72 455.689 53.936 455.689 52.368C455.689 51.632 455.257 51.104 454.393 50.784C453.529 50.464 452.201 50.192 450.409 49.968C448.297 49.648 446.553 49.28 445.177 48.864C443.801 48.448 442.601 47.712 441.577 46.656C440.585 45.6 440.089 44.096 440.089 42.144C440.089 40.512 440.553 39.072 441.481 37.824C442.441 36.544 443.817 35.552 445.609 34.848C447.433 34.144 449.577 33.792 452.041 33.792C453.865 33.792 455.673 34 457.465 34.416C459.289 34.8 460.793 35.344 461.977 36.048L459.481 41.376C457.209 40.096 454.729 39.456 452.041 39.456C450.441 39.456 449.241 39.68 448.441 40.128C447.641 40.576 447.241 41.152 447.241 41.856C447.241 42.656 447.673 43.216 448.537 43.536C449.401 43.856 450.777 44.16 452.665 44.448C454.777 44.8 456.505 45.184 457.849 45.6C459.193 45.984 460.361 46.704 461.353 47.76C462.345 48.816 462.841 50.288 462.841 52.176C462.841 53.776 462.361 55.2 461.401 56.448C460.441 57.696 459.033 58.672 457.177 59.376C455.353 60.048 453.177 60.384 450.649 60.384Z" fill="#2C3A40"/>
<path d="M195.064 78.192V96H192.856V93.984C192.344 94.688 191.696 95.224 190.912 95.592C190.128 95.96 189.264 96.144 188.32 96.144C187.088 96.144 185.984 95.872 185.008 95.328C184.032 94.784 183.264 94.024 182.704 93.048C182.16 92.056 181.888 90.92 181.888 89.64C181.888 88.36 182.16 87.232 182.704 86.256C183.264 85.28 184.032 84.52 185.008 83.976C185.984 83.432 187.088 83.16 188.32 83.16C189.232 83.16 190.072 83.336 190.84 83.688C191.608 84.024 192.248 84.528 192.76 85.2V78.192H195.064ZM188.512 94.128C189.312 94.128 190.04 93.944 190.696 93.576C191.352 93.192 191.864 92.664 192.232 91.992C192.6 91.304 192.784 90.52 192.784 89.64C192.784 88.76 192.6 87.984 192.232 87.312C191.864 86.624 191.352 86.096 190.696 85.728C190.04 85.36 189.312 85.176 188.512 85.176C187.696 85.176 186.96 85.36 186.304 85.728C185.664 86.096 185.152 86.624 184.768 87.312C184.4 87.984 184.216 88.76 184.216 89.64C184.216 90.52 184.4 91.304 184.768 91.992C185.152 92.664 185.664 93.192 186.304 93.576C186.96 93.944 187.696 94.128 188.512 94.128ZM210.919 89.712C210.919 89.888 210.903 90.12 210.871 90.408H200.551C200.695 91.528 201.183 92.432 202.015 93.12C202.863 93.792 203.911 94.128 205.159 94.128C206.679 94.128 207.903 93.616 208.831 92.592L210.103 94.08C209.527 94.752 208.807 95.264 207.943 95.616C207.095 95.968 206.143 96.144 205.087 96.144C203.743 96.144 202.551 95.872 201.511 95.328C200.471 94.768 199.663 93.992 199.087 93C198.527 92.008 198.247 90.888 198.247 89.64C198.247 88.408 198.519 87.296 199.063 86.304C199.623 85.312 200.383 84.544 201.343 84C202.319 83.44 203.415 83.16 204.631 83.16C205.847 83.16 206.927 83.44 207.871 84C208.831 84.544 209.575 85.312 210.103 86.304C210.647 87.296 210.919 88.432 210.919 89.712ZM204.631 85.104C203.527 85.104 202.599 85.44 201.847 86.112C201.111 86.784 200.679 87.664 200.551 88.752H208.711C208.583 87.68 208.143 86.808 207.391 86.136C206.655 85.448 205.735 85.104 204.631 85.104ZM220.564 78.192H222.868V96H220.564V78.192ZM231.899 83.16C233.659 83.16 235.003 83.592 235.931 84.456C236.875 85.32 237.347 86.608 237.347 88.32V96H235.163V94.32C234.779 94.912 234.227 95.368 233.507 95.688C232.803 95.992 231.963 96.144 230.987 96.144C229.563 96.144 228.419 95.8 227.555 95.112C226.707 94.424 226.283 93.52 226.283 92.4C226.283 91.28 226.691 90.384 227.507 89.712C228.323 89.024 229.619 88.68 231.395 88.68H235.043V88.224C235.043 87.232 234.755 86.472 234.179 85.944C233.603 85.416 232.755 85.152 231.635 85.152C230.883 85.152 230.147 85.28 229.427 85.536C228.707 85.776 228.099 86.104 227.603 86.52L226.643 84.792C227.299 84.264 228.083 83.864 228.995 83.592C229.907 83.304 230.875 83.16 231.899 83.16ZM231.371 94.368C232.251 94.368 233.011 94.176 233.651 93.792C234.291 93.392 234.755 92.832 235.043 92.112V90.336H231.491C229.539 90.336 228.563 90.992 228.563 92.304C228.563 92.944 228.811 93.448 229.307 93.816C229.803 94.184 230.491 94.368 231.371 94.368ZM255.904 96.192C254.224 96.192 252.704 95.824 251.344 95.088C250 94.336 248.944 93.312 248.176 92.016C247.408 90.704 247.024 89.232 247.024 87.6C247.024 85.968 247.408 84.504 248.176 83.208C248.944 81.896 250.008 80.872 251.368 80.136C252.728 79.384 254.248 79.008 255.928 79.008C257.24 79.008 258.44 79.232 259.528 79.68C260.616 80.112 261.544 80.76 262.312 81.624L260.752 83.136C259.488 81.808 257.912 81.144 256.024 81.144C254.776 81.144 253.648 81.424 252.64 81.984C251.632 82.544 250.84 83.32 250.264 84.312C249.704 85.288 249.424 86.384 249.424 87.6C249.424 88.816 249.704 89.92 250.264 90.912C250.84 91.888 251.632 92.656 252.64 93.216C253.648 93.776 254.776 94.056 256.024 94.056C257.896 94.056 259.472 93.384 260.752 92.04L262.312 93.552C261.544 94.416 260.608 95.072 259.504 95.52C258.416 95.968 257.216 96.192 255.904 96.192ZM270.562 96.192C269.298 96.192 268.074 96 266.89 95.616C265.722 95.216 264.802 94.704 264.13 94.08L265.018 92.208C265.658 92.784 266.474 93.256 267.466 93.624C268.474 93.976 269.506 94.152 270.562 94.152C271.954 94.152 272.994 93.92 273.682 93.456C274.37 92.976 274.714 92.344 274.714 91.56C274.714 90.984 274.522 90.52 274.138 90.168C273.77 89.8 273.306 89.52 272.746 89.328C272.202 89.136 271.426 88.92 270.418 88.68C269.154 88.376 268.13 88.072 267.346 87.768C266.578 87.464 265.914 87 265.354 86.376C264.81 85.736 264.538 84.88 264.538 83.808C264.538 82.912 264.77 82.104 265.234 81.384C265.714 80.664 266.434 80.088 267.394 79.656C268.354 79.224 269.546 79.008 270.97 79.008C271.962 79.008 272.938 79.136 273.898 79.392C274.858 79.648 275.682 80.016 276.37 80.496L275.578 82.416C274.874 81.968 274.122 81.632 273.322 81.408C272.522 81.168 271.738 81.048 270.97 81.048C269.61 81.048 268.586 81.296 267.898 81.792C267.226 82.288 266.89 82.928 266.89 83.712C266.89 84.288 267.082 84.76 267.466 85.128C267.85 85.48 268.322 85.76 268.882 85.968C269.458 86.16 270.234 86.368 271.21 86.592C272.474 86.896 273.49 87.2 274.258 87.504C275.026 87.808 275.682 88.272 276.226 88.896C276.786 89.52 277.066 90.36 277.066 91.416C277.066 92.296 276.826 93.104 276.346 93.84C275.866 94.56 275.138 95.136 274.162 95.568C273.186 95.984 271.986 96.192 270.562 96.192ZM285.468 96.192C284.204 96.192 282.98 96 281.796 95.616C280.628 95.216 279.708 94.704 279.036 94.08L279.924 92.208C280.564 92.784 281.38 93.256 282.372 93.624C283.38 93.976 284.412 94.152 285.468 94.152C286.86 94.152 287.9 93.92 288.588 93.456C289.276 92.976 289.62 92.344 289.62 91.56C289.62 90.984 289.428 90.52 289.044 90.168C288.676 89.8 288.212 89.52 287.652 89.328C287.108 89.136 286.332 88.92 285.324 88.68C284.06 88.376 283.036 88.072 282.252 87.768C281.484 87.464 280.82 87 280.26 86.376C279.716 85.736 279.444 84.88 279.444 83.808C279.444 82.912 279.676 82.104 280.14 81.384C280.62 80.664 281.34 80.088 282.3 79.656C283.26 79.224 284.452 79.008 285.876 79.008C286.868 79.008 287.844 79.136 288.804 79.392C289.764 79.648 290.588 80.016 291.276 80.496L290.484 82.416C289.78 81.968 289.028 81.632 288.228 81.408C287.428 81.168 286.644 81.048 285.876 81.048C284.516 81.048 283.492 81.296 282.804 81.792C282.132 82.288 281.796 82.928 281.796 83.712C281.796 84.288 281.988 84.76 282.372 85.128C282.756 85.48 283.228 85.76 283.788 85.968C284.364 86.16 285.14 86.368 286.116 86.592C287.38 86.896 288.396 87.2 289.164 87.504C289.932 87.808 290.588 88.272 291.132 88.896C291.692 89.52 291.972 90.36 291.972 91.416C291.972 92.296 291.732 93.104 291.252 93.84C290.772 94.56 290.044 95.136 289.068 95.568C288.092 95.984 286.892 96.192 285.468 96.192Z" fill="white"/>
<defs>
<clipPath id="clip0_216_144">
<rect width="122.88" height="104.28" fill="white" transform="translate(0 7.86011)"/>
</clipPath>
</defs>
</svg>
