<svg width="60" height="60" viewBox="0 0 60 60" fill="none" xmlns="http://www.w3.org/2000/svg">
<g clip-path="url(#clip0_153_924)">
<path d="M36.25 32.5001C35.5083 32.5001 34.7833 32.2802 34.1666 31.8681C33.5499 31.4561 33.0693 30.8704 32.7855 30.1852C32.5016 29.5 32.4274 28.746 32.5721 28.0185C32.7167 27.2911 33.0739 26.6229 33.5983 26.0985C34.1228 25.574 34.791 25.2169 35.5184 25.0722C36.2458 24.9275 36.9998 25.0018 37.6851 25.2856C38.3703 25.5694 38.956 26.0501 39.368 26.6667C39.7801 27.2834 40 28.0085 40 28.7501C40 29.7447 39.6049 30.6985 38.9016 31.4018C38.1984 32.105 37.2446 32.5001 36.25 32.5001ZM54.6275 20.6851C53.6239 14.9745 50.6665 9.7903 46.2616 6.01994C41.8568 2.24958 36.2783 0.127531 30.4812 0.0170541C24.6841 -0.093423 19.0289 1.81454 14.4836 5.41433C9.93823 9.01413 6.78548 14.0819 5.565 19.7501L3.75 30.0001H7.5C11.9889 29.9725 16.4156 28.9478 20.46 27.0001C20.1639 27.5363 20.0058 28.1377 20 28.7501C19.9966 29.4783 20.2053 30.1916 20.6005 30.8032C20.9958 31.4147 21.5605 31.898 22.2258 32.1939C22.8911 32.4899 23.6281 32.5857 24.347 32.4698C25.0658 32.3539 25.7354 32.0312 26.2739 31.5411C26.8124 31.051 27.1967 30.4148 27.3796 29.71C27.5626 29.0052 27.5364 28.2624 27.3043 27.5722C27.0722 26.8821 26.6442 26.2744 26.0725 25.8235C25.5008 25.3725 24.8102 25.0977 24.085 25.0326C29.4189 21.7047 33.9362 17.2199 37.3025 11.9101C35.8303 11.0929 34.2301 10.5316 32.57 10.2501C28.725 15.9476 20.5425 23.9076 9.7325 24.8976L10.47 20.7251C11.4909 16.0926 14.1252 11.9737 17.9024 9.10401C21.6797 6.23432 26.354 4.80066 31.0907 5.05903C35.8274 5.31741 40.318 7.251 43.7607 10.5145C47.2034 13.778 49.3741 18.159 49.885 22.8751L50.08 24.7376L51.925 25.0701C52.8358 25.2483 53.6483 25.7579 54.2051 26.5003C54.762 27.2428 55.0238 28.1654 54.9398 29.0897C54.8558 30.014 54.4321 30.8743 53.7505 31.5043C53.069 32.1342 52.178 32.489 51.25 32.5001C51.035 32.5001 48.5325 32.0626 48.5325 32.0626L47.8275 34.0626C45.5375 40.5526 37.825 47.5001 30 47.5001C22.435 47.5001 14.9425 40.9526 12.3975 34.6176C10.7764 34.8636 9.13961 34.9915 7.5 35.0001H7.2C7.355 35.4526 7.465 35.7501 7.5 35.8476C9.87631 41.8479 14.3062 46.8094 20 49.8476V60.0001H25V51.8301C26.6313 52.2655 28.3116 52.4907 30 52.5001C31.6879 52.4931 33.3681 52.2713 35 51.8401V60.0001H40V49.8851C45.1603 47.1109 49.3037 42.7662 51.83 37.4801C53.7945 37.3461 55.6564 36.5533 57.1145 35.2301C58.5727 33.9068 59.5419 32.1304 59.8654 30.1881C60.189 28.2458 59.8479 26.2511 58.8974 24.5266C57.9469 22.8022 56.4425 21.4487 54.6275 20.6851Z" fill="#2C3A40"/>
</g>
<defs>
<clipPath id="clip0_153_924">
<rect width="60" height="60" fill="white"/>
</clipPath>
</defs>
</svg>
