<svg width="456" height="322" viewBox="0 0 456 322" fill="none" xmlns="http://www.w3.org/2000/svg">
<g clip-path="url(#clip0_7_188)">
<path opacity="0.1" d="M151.769 321.819C173.927 321.819 191.889 318.937 191.889 315.381C191.889 311.825 173.927 308.943 151.769 308.943C129.61 308.943 111.648 311.825 111.648 315.381C111.648 318.937 129.61 321.819 151.769 321.819Z" fill="#2C3A40"/>
<path opacity="0.1" d="M369.86 322C397.51 322 419.925 319.118 419.925 315.562C419.925 312.006 397.51 309.124 369.86 309.124C342.21 309.124 319.796 312.006 319.796 315.562C319.796 319.118 342.21 322 369.86 322Z" fill="#2C3A40"/>
<path opacity="0.1" d="M6.1986 139.127H47.9871V196.033H9.2579C9.15497 196.617 9.05615 197.205 8.94909 197.793H47.9871V243.687C47.9171 243.666 47.8553 243.641 47.7894 243.617C46.686 243.181 45.5907 242.72 44.4955 242.226L43.7955 241.909C42.6975 241.391 41.5995 240.843 40.5015 240.264C40.1186 240.062 39.7356 239.852 39.3568 239.639C33.2612 236.227 27.7237 231.904 22.9362 226.82C22.7962 226.684 22.6645 226.54 22.5245 226.409C21.8574 225.685 21.2028 224.952 20.5687 224.204L19.8687 223.381C19.1193 222.464 18.3946 221.522 17.6905 220.567C17.5876 220.427 17.4888 220.287 17.3817 220.156C14.5182 216.189 12.1406 211.894 10.2996 207.362C10.242 207.226 10.1926 207.078 10.139 206.951C9.57358 205.497 9.07262 204.03 8.63616 202.549C8.44676 201.928 8.26559 201.315 8.10912 200.669C8.05148 200.48 8.00207 200.295 7.95677 200.11C5.61803 190.989 5.34216 181.515 5.34216 172.107C5.34216 171.009 5.34216 169.906 5.34216 168.816C5.34216 165.011 5.38746 161.181 5.45334 157.355C5.45334 156.364 5.49451 155.377 5.5151 154.381C5.57274 151.855 5.65509 149.329 5.76215 146.803C5.78685 146.1 5.81979 145.401 5.85685 144.701C5.85685 144.298 5.87744 143.895 5.91861 143.492C6.01743 142.027 6.09978 140.575 6.1986 139.127Z" fill="#2C3A40"/>
<path opacity="0.1" d="M47.987 75.7671H25.0649C28.7911 69.9403 32.8623 64.3411 37.2568 58.9995C40.662 54.8199 44.2566 50.7473 47.987 46.8228V75.7671Z" fill="#2C3A40"/>
<path opacity="0.1" d="M47.9872 77.5278V137.367H6.33044C6.33044 137.194 6.35927 137.017 6.37162 136.844C6.40868 136.371 6.44573 135.898 6.48691 135.429C6.5322 134.878 6.58161 134.322 6.63514 133.783C6.68867 133.245 6.74631 132.586 6.80807 131.99C6.86984 131.393 6.92748 130.789 6.99748 130.192C7.06748 129.596 7.12924 128.999 7.20335 128.407C7.27747 127.814 7.34335 127.214 7.42158 126.621C7.48334 126.128 7.54922 125.638 7.6151 125.145C7.7098 124.449 7.80863 123.75 7.91568 123.059C7.91568 122.956 7.9445 122.849 7.96097 122.75C8.71249 117.691 9.73649 112.676 11.0285 107.727C12.3809 102.535 14.1079 97.4484 16.196 92.506C18.4152 87.3357 21.0135 82.3363 23.9698 77.5484L47.9872 77.5278Z" fill="#2C3A40"/>
<path opacity="0.1" d="M57.9637 139.123V196.033H147.219V139.123H57.9637ZM57.9637 197.789V246.661C58.4743 246.768 58.9808 246.87 59.4831 246.957C60.1666 247.088 60.846 247.208 61.5419 247.311C61.6736 247.331 61.8095 247.352 61.9536 247.364C62.2254 247.409 62.5053 247.446 62.7771 247.483C63.4647 247.578 64.1482 247.656 64.8358 247.718C65.1611 247.751 65.4905 247.78 65.8199 247.804L66.6146 247.866C67.0469 247.899 67.4752 247.924 67.8993 247.936C68.1628 247.936 68.4263 247.961 68.6981 247.969C68.9039 247.969 69.1098 247.969 69.3239 247.969C69.538 247.969 69.8427 247.969 70.1021 247.969C70.4562 247.969 70.8103 247.969 71.1603 247.969H71.6338C71.9879 247.969 72.342 247.969 72.692 247.936H72.7167C72.9597 247.936 73.2067 247.936 73.4538 247.903C73.5223 247.907 73.5911 247.907 73.6596 247.903C73.8655 247.903 74.0714 247.903 74.269 247.874H74.4131L75.7925 247.767C76.2454 247.726 76.7025 247.673 77.1636 247.623L78.1024 247.512C81.9217 246.978 85.6986 246.175 89.405 245.11C97.7305 242.79 105.875 239.544 114.196 237.166C124.955 234.101 136.843 232.596 147.239 236.343V197.789H57.9637ZM147.219 75.7671V0.00404202C137.447 -0.101732 127.701 1.04017 118.219 3.402C95.6183 9.07487 75.3396 21.3791 57.9637 37.0937V75.7629H62.4436V77.5195H57.9637V137.366H147.219V77.5236H80.8364V75.7671H147.219ZM261.862 50.1754C256.271 49.9779 250.712 48.209 245.685 45.4775C236.07 40.253 228.391 32.1859 219.81 25.3777C201.981 11.1976 179.87 2.64096 157.187 0.518261V75.7671H284.603L284.92 75.4338L261.862 50.1754ZM273.469 48.1185L285.777 61.6116V44.5807C281.655 45.0908 278.044 46.3044 273.486 48.1021L273.469 48.1185ZM285.777 258.796V197.789H259.552C259.482 197.53 259.412 197.267 259.33 197.004C259.408 197.267 259.474 197.53 259.548 197.789H157.204V241.909C158.175 242.629 159.135 243.386 160.086 244.155C161.111 244.978 162.124 245.846 163.141 246.698L164.166 247.545C164.656 247.956 165.15 248.368 165.649 248.755C166.637 249.555 167.635 250.345 168.642 251.124C169.14 251.535 169.651 251.906 170.157 252.292C178.198 258.434 186.679 263.977 195.533 268.875C197.518 269.972 199.521 271.043 201.541 272.088C202.887 272.775 204.242 273.458 205.601 274.12C207.643 275.115 209.702 276.075 211.777 277C230.91 285.58 251.141 291.468 271.892 294.495C276.501 295.176 281.128 295.71 285.773 296.1V258.792H286.184L285.777 258.796ZM157.204 77.5236V137.366H285.793V77.5236H157.204ZM157.204 139.123V196.033H285.793V139.123H157.204ZM295.774 44.5066V63.504L311.482 46.2838C306.278 45.4446 301.042 44.8453 295.774 44.4861V44.5066ZM295.774 139.144V196.033H420.843V139.123L295.774 139.144ZM420.386 263.313L420.826 197.789H295.774V296.754C303.83 297.092 311.898 296.996 319.944 296.466H320.084C323.927 296.225 327.752 295.874 331.559 295.413H331.646C351.957 293.051 371.819 287.756 390.608 279.694L420.386 263.313ZM444.959 148.494C444.49 147.388 444 146.289 443.502 145.203C442.571 143.146 441.587 141.147 440.574 139.148H430.816V196.033H455.488C455.475 179.923 451.395 163.468 444.971 148.474L444.959 148.494ZM430.816 197.81V254.168C437.766 247.512 443.637 239.898 447.866 231.193C452.951 220.711 455.278 209.361 455.467 197.802L430.816 197.81ZM430.816 122.561V137.371H439.66C436.984 132.272 434.036 127.322 430.828 122.54L430.816 122.561ZM345.995 55.6714C345.345 55.4245 344.694 55.1736 344.039 54.9309C337.135 52.3834 330.079 50.2649 322.912 48.5875L298.874 74.9443L298.413 75.4338L298.722 75.7712H384.275C372.36 67.5768 359.515 60.8228 346.007 55.6508L345.995 55.6714ZM386.783 77.5442H297.528L295.774 79.1486V137.366H311.149H311.173H420.859V109.167C410.937 97.1774 399.485 86.5392 386.795 77.5236L386.783 77.5442Z" fill="#2C3A40"/>
<path opacity="0.1" d="M47.9872 107.71V137.367H6.33044C6.33044 137.194 6.35927 137.017 6.37162 136.844C6.40868 136.371 6.44573 135.898 6.48691 135.429C6.5322 134.878 6.58161 134.322 6.63514 133.783C6.68867 133.245 6.74631 132.586 6.80807 131.99C6.86984 131.393 6.92748 130.789 6.99748 130.192C7.06748 129.596 7.12924 128.999 7.20335 128.407C7.27747 127.814 7.34335 127.214 7.42158 126.621C7.48334 126.128 7.54922 125.638 7.6151 125.145C7.7098 124.449 7.80863 123.75 7.91568 123.059C7.91568 122.956 7.9445 122.849 7.96097 122.75C8.71249 117.691 9.73649 112.676 11.0285 107.727L47.9872 107.71Z" fill="#2C3A40"/>
<path opacity="0.1" d="M6.1986 139.127H47.9871V196.033H9.2579C9.15497 196.617 9.05615 197.205 8.94909 197.793H47.9871V243.687C47.9171 243.666 47.8553 243.641 47.7894 243.617C46.686 243.181 45.5907 242.72 44.4955 242.226L43.7955 241.909C42.6975 241.391 41.5995 240.843 40.5015 240.264C40.1186 240.062 39.7356 239.852 39.3568 239.639C33.2612 236.227 27.7237 231.904 22.9362 226.82C22.7962 226.684 22.6645 226.54 22.5245 226.409C21.8574 225.685 21.2028 224.952 20.5687 224.204L19.8687 223.381C19.1193 222.464 18.3946 221.522 17.6905 220.567C17.5876 220.427 17.4888 220.287 17.3817 220.156C14.5182 216.189 12.1406 211.894 10.2996 207.362C10.242 207.226 10.1926 207.078 10.139 206.951C9.57358 205.497 9.07262 204.03 8.63616 202.549C8.44676 201.928 8.26559 201.315 8.10912 200.669C8.05148 200.48 8.00207 200.295 7.95677 200.11C5.61803 190.989 5.34216 181.515 5.34216 172.107C5.34216 171.009 5.34216 169.906 5.34216 168.816C5.34216 165.011 5.38746 161.181 5.45334 157.355C5.45334 156.364 5.49451 155.377 5.5151 154.381C5.57274 151.855 5.65509 149.329 5.76215 146.803C5.78685 146.1 5.81979 145.401 5.85685 144.701C5.85685 144.298 5.87744 143.895 5.91861 143.492C6.01743 142.027 6.09978 140.575 6.1986 139.127Z" fill="#2C3A40"/>
<path opacity="0.1" d="M89.3844 86.0927V137.367H57.9637V86.0927H62.4436V68.7327H80.8323V86.0927H89.3844Z" fill="#2C3A40"/>
<path opacity="0.1" d="M89.3844 139.123H57.9679V196.029H89.3844V139.123Z" fill="#2C3A40"/>
<path opacity="0.1" d="M57.9637 197.793H89.3844V245.102C85.678 246.166 81.9011 246.967 78.0818 247.5L77.143 247.615C76.6819 247.669 76.2248 247.714 75.7719 247.759C75.319 247.804 74.8496 247.837 74.3926 247.866H74.2484C74.0508 247.866 73.8367 247.891 73.6432 247.895H73.4332C73.1861 247.895 72.9391 247.92 72.692 247.928C72.342 247.948 71.9921 247.952 71.6338 247.957C71.4815 247.957 71.3374 247.957 71.185 247.957C70.8309 247.957 70.4809 247.957 70.1268 247.957H69.3486C69.1386 247.957 68.9369 247.957 68.7186 247.957L67.924 247.928C67.5122 247.928 67.0675 247.883 66.6393 247.854L65.8488 247.796L64.8647 247.706C64.1729 247.644 63.4853 247.566 62.8059 247.471L61.9824 247.356L61.5707 247.298C60.883 247.191 60.2037 247.076 59.5119 246.945C59.0055 246.858 58.5031 246.751 57.9926 246.648L57.9637 197.793Z" fill="#2C3A40"/>
<path opacity="0.1" d="M285.793 80.0371H259.886V137.362H285.793V80.0371Z" fill="#2C3A40"/>
<path opacity="0.1" d="M285.797 139.123V196.033H157.204V171.486H225.698V185.966H259.886V139.123H285.797Z" fill="#2C3A40"/>
<path opacity="0.1" d="M286.205 258.809H285.793V296.141C281.154 295.749 276.529 295.215 271.917 294.541C251.155 291.504 230.916 285.603 211.777 277.008C206.251 274.523 200.838 271.811 195.538 268.871C186.684 263.97 178.201 258.428 170.157 252.288C168.137 250.742 166.143 249.159 164.175 247.541C162.812 246.418 161.457 245.266 160.086 244.147C159.135 243.378 158.175 242.621 157.204 241.897V197.794H259.544C259.474 197.53 259.404 197.267 259.33 197.008C259.408 197.267 259.482 197.53 259.552 197.794H285.793V258.784C285.933 258.788 286.069 258.801 286.205 258.809Z" fill="#2C3A40"/>
<path opacity="0.1" d="M353.361 75.7672H336.48V70.5263H344.048V54.9146C344.704 55.1531 345.357 55.3986 346.008 55.6509V70.5263H353.361V75.7672Z" fill="#2C3A40"/>
<path opacity="0.1" d="M394.034 137.367H311.157C311.157 137.367 311.157 137.367 311.186 137.387L311.149 137.367H295.774V80.0413H300.13V122.413H320.038V97.3191H336.484V77.5278H353.365V97.3356H369.811V122.429H394.034V137.367Z" fill="#2C3A40"/>
<path opacity="0.1" d="M295.774 139.123V196.033H394.034V139.123H295.774ZM420.707 263.021L420.843 217.975H394.034V197.818H295.774V296.754C303.83 297.092 311.898 296.996 319.944 296.466H320.084C323.927 296.225 327.752 295.874 331.559 295.413H331.646C351.958 293.051 371.819 287.756 390.608 279.694" fill="#2C3A40"/>
<path opacity="0.1" d="M432.561 197.793H455.483C455.282 209.349 452.959 220.699 447.878 231.181C443.65 239.89 437.774 247.504 430.832 254.156V217.955H432.561V197.793Z" fill="#2C3A40"/>
<path opacity="0.1" d="M455.496 196.033H432.561V148.474H444.972C451.395 163.468 455.475 179.923 455.496 196.033Z" fill="#2C3A40"/>
<path opacity="0.1" d="M285.797 95.9739H271.917V113.947H285.797V95.9739Z" fill="#2C3A40"/>
<path opacity="0.1" d="M285.797 133.228H271.917V137.366H285.797V133.228Z" fill="#2C3A40"/>
<path opacity="0.1" d="M285.797 139.123H271.917V151.197H285.797V139.123Z" fill="#2C3A40"/>
<path opacity="0.1" d="M285.797 170.482H271.917V188.455H285.797V170.482Z" fill="#2C3A40"/>
<path opacity="0.1" d="M285.797 207.736H271.917V225.709H285.797V207.736Z" fill="#2C3A40"/>
<path opacity="0.1" d="M285.793 258.784C285.933 258.784 286.069 258.784 286.205 258.809H285.793V262.984H271.917V244.99H285.793V258.784Z" fill="#2C3A40"/>
<path opacity="0.1" d="M285.793 282.236V296.12C281.154 295.728 276.529 295.195 271.917 294.52V282.236H285.793Z" fill="#2C3A40"/>
<path opacity="0.1" d="M216.689 194.712H157.204V196.033H216.689V194.712Z" fill="#2C3A40"/>
<path opacity="0.1" d="M216.689 197.789H157.204V202.849H216.689V197.789Z" fill="#2C3A40"/>
<path opacity="0.1" d="M216.689 219.436H157.204V227.573H216.689V219.436Z" fill="#2C3A40"/>
<path opacity="0.1" d="M216.685 244.16V252.297H170.157C168.137 250.755 166.141 249.173 164.171 247.549C162.808 246.426 161.457 245.274 160.082 244.16H216.685Z" fill="#2C3A40"/>
<path opacity="0.1" d="M216.685 268.879V277.008H211.773C206.253 274.52 200.841 271.807 195.538 268.867L216.685 268.879Z" fill="#2C3A40"/>
<path opacity="0.1" d="M331.658 144.64H319.948V156.339H331.658V144.64Z" fill="#2C3A40"/>
<path opacity="0.1" d="M78.1107 90.1282H66.4005V101.828H78.1107V90.1282Z" fill="#2C3A40"/>
<path opacity="0.1" d="M78.1107 117.304H66.4005V129.003H78.1107V117.304Z" fill="#2C3A40"/>
<path opacity="0.1" d="M78.1107 144.479H66.4005V156.179H78.1107V144.479Z" fill="#2C3A40"/>
<path opacity="0.1" d="M78.1107 171.651H66.4005V183.35H78.1107V171.651Z" fill="#2C3A40"/>
<path opacity="0.1" d="M78.1107 198.826H66.4005V210.525H78.1107V198.826Z" fill="#2C3A40"/>
<path opacity="0.1" d="M78.1107 226.001H66.4005V237.701H78.1107V226.001Z" fill="#2C3A40"/>
<path opacity="0.1" d="M376.362 144.64H364.651V156.339H376.362V144.64Z" fill="#2C3A40"/>
<path opacity="0.1" d="M331.658 173.498H319.948V185.197H331.658V173.498Z" fill="#2C3A40"/>
<path opacity="0.1" d="M376.362 173.498H364.651V185.197H376.362V173.498Z" fill="#2C3A40"/>
<path opacity="0.1" d="M331.658 202.352H319.948V214.051H331.658V202.352Z" fill="#2C3A40"/>
<path opacity="0.1" d="M376.362 202.352H364.651V214.051H376.362V202.352Z" fill="#2C3A40"/>
<path opacity="0.1" d="M331.658 231.209H319.948V242.909H331.658V231.209Z" fill="#2C3A40"/>
<path opacity="0.1" d="M376.362 231.209H364.651V242.909H376.362V231.209Z" fill="#2C3A40"/>
<path opacity="0.1" d="M331.658 260.067H319.948V271.767H331.658V260.067Z" fill="#2C3A40"/>
<path opacity="0.1" d="M376.362 260.067H364.651V271.767H376.362V260.067Z" fill="#2C3A40"/>
<path opacity="0.1" d="M319.948 296.466V288.921H331.654V295.392L319.948 296.466Z" fill="#2C3A40"/>
<path opacity="0.1" d="M7.9115 122.742V129.435H47.9871V122.742H7.9115ZM11.9055 129.016H8.63618V123.154H11.9302L11.9055 129.016ZM15.8953 129.016H12.6013V123.154H15.8953V129.016ZM19.8769 129.016H16.583V123.154H19.8769V129.016ZM23.8668 129.016H20.5769V123.154H23.8709L23.8668 129.016ZM27.8525 129.016H24.5585V123.154H27.8525V129.016ZM31.8424 129.016H28.5484V123.154H31.8424V129.016ZM35.8323 129.016H32.5383V123.154H35.8323V129.016ZM39.818 129.016H36.524V123.154H39.818V129.016ZM43.8037 129.016H40.5097V123.154H43.8037V129.016ZM47.7895 129.016H44.4955V123.154H47.7895V129.016Z" fill="#2C3A40"/>
<path opacity="0.1" d="M7.9115 142.217V148.91H47.9871V142.217H7.9115ZM11.9055 148.486H8.63618V142.64H11.9302L11.9055 148.486ZM15.8953 148.486H12.6013V142.64H15.8953V148.486ZM19.8769 148.486H16.583V142.64H19.8769V148.486ZM23.8668 148.486H20.5769V142.64H23.8709L23.8668 148.486ZM27.8525 148.486H24.5585V142.64H27.8525V148.486ZM31.8424 148.486H28.5484V142.64H31.8424V148.486ZM35.8323 148.486H32.5383V142.64H35.8323V148.486ZM39.818 148.486H36.524V142.64H39.818V148.486ZM43.8037 148.486H40.5097V142.64H43.8037V148.486ZM47.7895 148.486H44.4955V142.64H47.7895V148.486Z" fill="#2C3A40"/>
<path opacity="0.1" d="M7.9115 161.699V168.405H47.9871V161.699H7.9115ZM11.9055 167.969H8.63618V162.119H11.9302L11.9055 167.969ZM15.8953 167.969H12.6013V162.119H15.8953V167.969ZM19.8769 167.969H16.583V162.119H19.8769V167.969ZM23.8668 167.969H20.5769V162.119H23.8709L23.8668 167.969ZM27.8525 167.969H24.5585V162.119H27.8525V167.969ZM31.8424 167.969H28.5484V162.119H31.8424V167.969ZM35.8323 167.969H32.5383V162.119H35.8323V167.969ZM39.818 167.969H36.524V162.119H39.818V167.969ZM43.8037 167.969H40.5097V162.119H43.8037V167.969ZM47.7895 167.969H44.4955V162.119H47.7895V167.969Z" fill="#2C3A40"/>
<path opacity="0.1" d="M7.9115 181.182V187.867H47.9871V181.182H7.9115ZM11.9055 187.452H8.63618V181.598H11.9302L11.9055 187.452ZM15.8953 187.452H12.6013V181.598H15.8953V187.452ZM19.8769 187.452H16.583V181.598H19.8769V187.452ZM23.8668 187.452H20.5769V181.598H23.8709L23.8668 187.452ZM27.8525 187.452H24.5585V181.598H27.8525V187.452ZM31.8424 187.452H28.5484V181.598H31.8424V187.452ZM35.8323 187.452H32.5383V181.598H35.8323V187.452ZM39.818 187.452H36.524V181.598H39.818V187.452ZM43.8037 187.452H40.5097V181.598H43.8037V187.452ZM47.7895 187.452H44.4955V181.598H47.7895V187.452Z" fill="#2C3A40"/>
<path opacity="0.1" d="M8.08447 200.661C8.24506 201.29 8.42622 201.919 8.61563 202.541V201.08H11.9096V206.93H10.1473C10.2009 207.066 10.2544 207.214 10.3079 207.341H47.9871V200.661H8.08447ZM15.9077 206.93H12.6137V201.08H15.9077V206.93ZM19.8893 206.93H16.5953V201.08H19.8893V206.93ZM23.8792 206.93H20.577V201.08H23.871L23.8792 206.93ZM27.8649 206.93H24.5709V201.08H27.8649V206.93ZM31.8548 206.93H28.5608V201.08H31.8548V206.93ZM35.8446 206.93H32.5506V201.08H35.8446V206.93ZM39.8304 206.93H36.5364V201.08H39.8304V206.93ZM43.8161 206.93H40.5221V201.08H43.8161V206.93ZM47.8019 206.93H44.5079V201.08H47.8019V206.93Z" fill="#2C3A40"/>
<path opacity="0.1" d="M17.39 220.144C17.493 220.275 17.5918 220.423 17.6988 220.555H19.877V223.365C20.1117 223.644 20.3423 223.924 20.5811 224.187V220.538H23.8751V226.409H22.541C22.6728 226.545 22.8004 226.689 22.9528 226.82H47.9995V220.144H17.39ZM27.8526 226.409H24.5586V220.563H27.8526V226.409ZM31.8424 226.409H28.5484V220.563H31.8424V226.409ZM35.8323 226.409H32.5383V220.563H35.8323V226.409ZM39.818 226.409H36.524V220.563H39.818V226.409ZM43.8038 226.409H40.5098V220.563H43.8038V226.409ZM47.7895 226.409H44.4955V220.563H47.7895V226.409Z" fill="#2C3A40"/>
<path opacity="0.1" d="M39.3733 239.622C39.748 239.836 40.1309 240.033 40.518 240.247V240.042H43.812V241.893L44.5119 242.218V240.042H47.8059V243.6C47.8691 243.631 47.9353 243.656 48.0036 243.674V239.622H39.3733Z" fill="#2C3A40"/>
<path opacity="0.1" d="M311.157 137.367H311.182H311.157ZM285.793 258.78H286.205H285.793ZM259.33 197.004C259.408 197.267 259.474 197.53 259.548 197.789C259.482 197.53 259.412 197.267 259.33 197.004ZM311.157 137.354H311.182H311.157ZM62.4601 75.7549V77.5115H80.8529V75.7549H62.4601ZM285.793 258.78H286.205H285.793ZM259.33 197.004C259.408 197.267 259.474 197.53 259.548 197.789C259.482 197.53 259.412 197.267 259.33 197.004ZM311.157 137.354H311.182H311.157ZM285.793 258.768H286.205H285.793ZM259.33 197.004C259.408 197.267 259.474 197.53 259.548 197.789C259.482 197.53 259.412 197.267 259.33 197.004Z" fill="#2C3A40"/>
<path d="M190.564 156.187C190.564 156.187 188.941 155.961 188.941 153.599C188.941 151.238 187.78 146.828 187.78 146.828C187.78 146.808 186.776 139.148 185.388 137.93C184 136.712 182.218 129.563 182.218 129.563C182.218 129.563 181.913 125.683 181.291 124.848C180.669 124.013 179.829 121.969 178.59 119.052C177.351 116.135 172.183 114.115 172.183 114.115C172.183 114.115 162.841 108.702 160.193 106.937C159.952 106.792 159.727 106.622 159.522 106.431C159.061 105.826 157.051 105.814 157.051 105.814C156.841 104.489 156.64 102.967 156.574 101.589C156.574 101.441 156.574 101.293 156.553 101.145C159.505 99.4013 161.729 96.6524 162.816 93.4027C162.865 93.2464 162.906 93.0819 162.952 92.9255C163.129 92.8673 163.291 92.7729 163.43 92.6482C163.568 92.5235 163.679 92.3714 163.755 92.2015C163.993 91.6709 163.998 91.0497 164.294 90.556C164.64 89.9719 165.299 89.6592 165.818 89.2191C167.127 88.1083 167.465 86.2366 167.403 84.5335C167.362 83.1554 167.139 81.7649 167.226 80.3951L167.25 80.0495C167.275 79.8438 167.304 79.6381 167.341 79.4407C167.543 78.4205 167.983 77.4578 168.23 76.4459C168.477 75.4339 168.502 74.2944 167.926 73.4222C167.082 72.1429 165.323 71.8878 163.779 71.7562C162.029 71.6081 160.465 71.8014 159.345 70.3493C158.821 69.5903 158.231 68.8786 157.583 68.2225C157.352 68.0085 155.112 66.6428 155.112 66.5523C152.926 65.5407 150.448 65.3508 148.133 66.0175C146.972 66.3548 145.876 66.9061 144.699 67.1817C142.158 67.7823 139.235 67.1323 137.077 68.5845C135.875 69.4072 135.155 70.7154 134.479 71.9907C133.93 73.041 133.373 74.09 132.808 75.1377C131.898 76.8613 130.971 78.6138 130.588 80.5226C130.508 80.9379 130.458 81.3587 130.44 81.7814V81.802C130.44 81.9542 130.44 82.1064 130.44 82.2586V82.4519C130.44 82.5959 130.44 82.7358 130.465 82.8633C130.489 82.9908 130.485 83.032 130.498 83.1184C130.51 83.2047 130.531 83.3981 130.555 83.5297C130.58 83.6614 130.629 83.8917 130.679 84.0728C130.699 84.1509 130.728 84.225 130.753 84.299C130.794 84.4389 130.843 84.5746 130.897 84.7104C130.926 84.7803 130.955 84.8544 130.988 84.9243C131.049 85.0683 131.123 85.2081 131.198 85.3357C131.231 85.3933 131.255 85.4467 131.288 85.5002C131.403 85.6915 131.53 85.8756 131.667 86.0515C132.548 87.1498 133.845 87.8492 134.805 88.8776C134.805 88.9188 134.805 88.9599 134.805 88.9969C134.805 89.1121 134.805 89.2232 134.805 89.3384C134.855 91.632 135.466 93.8785 136.585 95.8824C137.703 97.8863 139.294 99.5869 141.22 100.836C141.22 100.993 141.24 101.153 141.248 101.309C141.329 102.53 141.314 103.756 141.203 104.975C141.035 104.777 140.826 104.62 140.589 104.515C140.352 104.41 140.095 104.359 139.836 104.366C139.659 104.357 139.482 104.372 139.309 104.411L139.272 104.382V104.419C138.366 104.642 137.25 105.584 136.184 108.262C136.184 108.262 132.939 111.915 130.469 111.762C127.998 111.61 121.744 115.564 121.744 115.564C121.744 115.564 115.642 119.521 114.332 123.552C113.6 125.839 112.723 128.075 111.705 130.25L104.162 145.779L102.77 158.1C102.77 158.1 103.54 163.579 103.388 164.414C103.236 165.249 106.554 172.782 106.554 172.782C106.554 172.782 117.519 192.03 121.999 193.017L122.32 192.791C122.512 192.891 122.715 192.967 122.926 193.017L123.848 192.367C123.903 193.092 123.88 193.82 123.778 194.539C123.16 196.44 124.008 208.843 125.087 211.274C126.166 213.705 125.783 245.583 125.783 245.583L125.631 248.397C125.631 248.397 125.631 248.487 125.668 248.643L125.631 249.31L125.742 249.368C125.857 250.26 125.82 251.166 125.631 252.046C125.244 253.28 125.087 256.768 125.087 256.768C125.087 256.768 122.003 276.465 123.465 280.422C124.927 284.38 126.17 288.716 126.17 288.716C126.17 288.716 127.714 293.652 126.244 294.495C124.774 295.339 120.595 296.754 121.456 298.811C122.238 300.711 125.207 305.804 125.647 306.549L125.61 306.94L125.005 313.493C125.103 314.358 125.338 315.202 125.701 315.994C126.364 317.421 127.652 318.902 130.102 318.742C130.514 318.713 130.992 318.664 131.453 318.602C135.937 318.001 141.458 316.002 141.458 316.002C141.172 315.82 140.909 315.603 140.676 315.356C140.456 315.143 140.281 314.887 140.163 314.604C140.045 314.321 139.985 314.017 139.988 313.711C140.054 312.518 137.819 306.833 137.263 305.434C137.176 305.232 137.131 305.117 137.131 305.117C137.131 305.117 142.228 299.794 141.38 295.075C141.38 295.075 135.739 291.784 137.596 289.979C139.453 288.173 142.772 282.985 142.772 282.985C142.772 282.985 142.924 263.589 142.772 260.693C142.613 258.683 142.708 256.66 143.056 254.674C143.118 254.374 143.192 254.082 143.27 253.794C145.838 254.177 148.431 254.374 151.027 254.382C151.974 254.382 152.938 254.382 153.91 254.325C153.91 254.599 153.922 254.895 153.947 255.213C154.161 260.018 154.56 268.443 154.886 271.574C155.347 276.062 157.895 288.156 157.895 288.156C157.895 288.156 153.033 291.274 158.744 298.959C158.744 298.959 158.744 301.744 158.365 302.147C157.96 303.465 157.635 304.806 157.389 306.162C157.15 307.61 157.051 309.075 157.438 309.836C158.365 311.654 163.923 311.506 163.923 311.506L164.059 311.481C165.109 311.373 166.169 311.474 167.179 311.778C168.189 312.082 169.129 312.584 169.943 313.254C172.056 314.949 180.072 314.204 184.412 313.665C186.113 313.452 187.249 313.254 187.249 313.254C187.304 313.062 187.324 312.861 187.307 312.662C187.261 311.596 186.426 309.26 180.76 307.174C180.76 307.174 175.432 303.595 175.506 300.477H175.395H174.777C175.226 300.452 175.514 300.477 175.514 300.477C175.514 300.477 173.427 292.866 174.279 292.249C175.131 291.632 172.578 283.199 172.578 283.199C172.578 283.199 171.117 269.048 171.039 268.056C171.042 267.206 171.171 266.36 171.421 265.547L171.039 257.788C171.039 257.788 170.964 255.209 171.039 254.37C171.026 253.641 170.967 252.915 170.861 252.194C170.824 251.906 170.787 251.605 170.746 251.309C172.743 250.803 174.04 250.334 174.04 250.334L173.81 223.327C175.506 220.036 175.819 212.817 175.811 207.695C175.811 204.404 175.662 201.969 175.662 201.969L177.981 198.188C177.981 198.188 178.516 193.663 177.668 192.672C177.293 192.223 177.462 191.759 177.771 191.376C177.931 191.249 178.1 191.133 178.277 191.03C178.277 191.03 178.252 190.993 178.224 190.94C178.385 190.805 178.557 190.682 178.738 190.574C178.738 190.574 177.915 189.298 178.652 188.76C179.344 189.229 179.961 189.582 180.431 189.87C180.398 190.171 180.365 190.343 180.365 190.343L180.562 189.932C181.015 190.187 181.291 190.343 181.291 190.343C181.291 190.343 184.923 183.116 184.844 182.05C184.766 180.985 187.315 176.496 187.315 176.496C187.315 176.496 187.624 174.139 189.016 173.152C190.407 172.165 190.094 165.011 190.094 165.011C190.094 165.011 190.481 161.284 191.408 159.762C192.334 158.24 190.564 156.187 190.564 156.187ZM121.077 153.015L121.147 154.739C120.735 154.077 120.439 153.599 120.439 153.599L121.077 153.015Z" fill="url(#paint0_linear_7_188)"/>
<path d="M181.489 187.221L180.599 191.006C180.599 191.006 173.476 187.373 172.191 182.758C170.907 178.142 174.341 176.39 174.341 176.39L180.978 179.199L181.489 187.221Z" fill="white"/>
<path opacity="0.1" d="M181.489 187.221L180.599 191.006C180.599 191.006 173.476 187.373 172.191 182.758C170.907 178.142 174.341 176.39 174.341 176.39L180.978 179.199L181.489 187.221Z" fill="#2C3A40"/>
<path d="M141.512 316.027C141.512 316.027 134.924 318.446 130.395 318.75C127.99 318.911 126.726 317.438 126.076 316.019C125.72 315.23 125.491 314.39 125.396 313.53L125.985 307.01L126.298 303.538L135.92 301.041L137.283 305.204L137.411 305.52C137.959 306.911 140.153 312.567 140.087 313.748C140.085 314.05 140.143 314.35 140.259 314.629C140.375 314.908 140.546 315.161 140.763 315.373C140.984 315.622 141.235 315.842 141.512 316.027Z" fill="white"/>
<path d="M186.512 312.711C186.529 312.909 186.509 313.108 186.454 313.299C186.454 313.299 172.364 315.648 169.482 313.299C168.669 312.613 167.722 312.104 166.701 311.805C165.68 311.506 164.608 311.424 163.553 311.563C163.553 311.563 158.101 311.711 157.191 309.918C156.813 309.165 156.911 307.705 157.146 306.265C157.386 304.916 157.704 303.582 158.101 302.27L158.32 302.098L159.617 301.057L174.802 300.608H174.917C174.843 303.71 180.072 307.269 180.072 307.269C185.627 309.325 186.446 311.65 186.512 312.711Z" fill="white"/>
<path opacity="0.1" d="M186.512 312.711C186.527 312.909 186.506 313.109 186.45 313.299C186.45 313.299 172.364 315.648 169.482 313.299C168.67 312.614 167.723 312.105 166.703 311.806C165.683 311.507 164.611 311.425 163.557 311.563C163.557 311.563 158.101 311.712 157.196 309.918C156.817 309.161 156.911 307.705 157.146 306.265C159.246 306.475 162.561 306.997 163.862 308.244C165.83 310.14 169.165 312.032 171.211 312.18C172.813 312.283 182.395 312.588 186.512 312.711Z" fill="#2C3A40"/>
<path opacity="0.1" d="M141.512 316.027C141.512 316.027 134.924 318.446 130.395 318.75C127.99 318.911 126.726 317.438 126.08 316.014C127.755 316.578 130.082 317.17 131.305 316.627C132.754 315.986 137.893 315.57 140.775 315.393C140.994 315.633 141.242 315.846 141.512 316.027Z" fill="#2C3A40"/>
<path d="M151.287 121.097C145.852 118.986 138.86 112.013 140.606 108.755C140.994 107.933 141.224 107.046 141.285 106.139C141.398 104.908 141.414 103.67 141.335 102.437C141.212 100.416 140.969 98.4052 140.606 96.4141C140.606 96.4141 157.574 96.7966 156.586 99.2937C156.298 100.026 156.253 101.297 156.331 102.72C156.409 104.144 156.615 105.752 156.829 107.114C157.125 108.982 157.422 110.405 157.422 110.405C157.422 110.405 156.384 111.857 155.775 111.935C155.166 112.013 159.085 124.104 151.287 121.097Z" fill="#CF6F80"/>
<path opacity="0.1" d="M137.399 305.52L137.271 305.66C132.198 299.531 126.063 307.17 126.063 307.17L125.973 307.01L126.285 303.538L135.908 301.041L137.271 305.204L137.399 305.52Z" fill="#2C3A40"/>
<path opacity="0.1" d="M174.921 301.04C174.921 301.04 171.216 300.962 169.239 302.706C167.263 304.451 157.71 303.085 158.122 302.706C158.244 302.519 158.317 302.304 158.336 302.081L159.633 301.04L174.818 300.592C174.876 300.868 174.921 301.04 174.921 301.04Z" fill="#2C3A40"/>
<path d="M143.711 252.905C143.435 253.587 143.225 254.294 143.085 255.016C142.741 256.993 142.646 259.005 142.801 261.005C142.953 263.885 142.801 283.183 142.801 283.183C142.801 283.183 139.544 288.329 137.728 290.143C135.912 291.957 141.434 295.215 141.434 295.215C142.257 299.905 137.267 305.204 137.267 305.204C132.194 299.074 126.059 306.717 126.059 306.717C126.059 306.717 122.724 300.958 121.892 298.901C121.06 296.844 125.149 295.421 126.586 294.586C128.023 293.751 126.516 288.827 126.516 288.827C126.516 288.827 125.301 284.511 123.86 280.575C122.419 276.638 125.45 257.04 125.45 257.04C125.45 257.04 125.606 253.56 125.981 252.346C126.17 251.47 126.207 250.569 126.092 249.68C126.067 249.38 126.038 249.129 126.018 248.96C125.997 248.792 125.981 248.714 125.981 248.714L126.038 248.615L128.097 244.781C128.097 244.781 144.699 250.491 143.711 252.905Z" fill="#2C3A40"/>
<path d="M174.921 300.588C174.921 300.588 171.216 300.51 169.239 302.233C167.263 303.957 157.71 302.612 158.122 302.233C158.534 301.855 158.501 299.053 158.501 299.053C152.897 291.41 157.677 288.308 157.677 288.308C157.677 288.308 155.174 276.276 154.721 271.812C154.404 268.694 154.013 260.314 153.803 255.53C153.712 253.473 153.659 252.058 153.659 252.058L158.237 251.136L158.826 251.017L169.869 248.804C169.869 248.804 170.174 250.861 170.38 252.543C170.482 253.262 170.54 253.986 170.553 254.711C170.479 255.534 170.553 258.109 170.553 258.109L170.927 265.831C170.683 266.641 170.556 267.482 170.553 268.328C170.627 269.311 172.064 283.388 172.064 283.388C172.064 283.388 174.563 291.789 173.711 292.393C172.858 292.998 174.921 300.588 174.921 300.588Z" fill="#2C3A40"/>
<path opacity="0.1" d="M156.586 99.2937C156.298 100.026 156.253 101.297 156.331 102.72C154.058 104.088 151.445 104.787 148.793 104.737C146.14 104.688 143.555 103.892 141.335 102.441C141.213 100.419 140.969 98.4066 140.606 96.4141C140.606 96.4141 157.574 96.7884 156.586 99.2937Z" fill="#2C3A40"/>
<path d="M163.145 90.2022C163.149 91.6846 162.915 93.158 162.454 94.5669C161.422 97.7236 159.307 100.414 156.481 102.164C153.656 103.913 150.303 104.608 147.014 104.126C143.726 103.644 140.714 102.016 138.51 99.5298C136.307 97.0436 135.054 93.8593 134.973 90.5395C134.973 90.4243 134.973 90.3174 134.973 90.2022C134.941 88.3335 135.282 86.4773 135.976 84.7416C136.669 83.0059 137.702 81.4256 139.013 80.0929C140.325 78.7601 141.889 77.7016 143.614 76.979C145.339 76.2564 147.191 75.8843 149.061 75.8843C150.932 75.8843 152.784 76.2564 154.509 76.979C156.234 77.7016 157.798 78.7601 159.109 80.0929C160.421 81.4256 161.453 83.0059 162.147 84.7416C162.841 86.4773 163.181 88.3335 163.149 90.2022H163.145Z" fill="#CF6F80"/>
<path opacity="0.1" d="M151.287 121.097C145.852 118.986 138.86 112.013 140.606 108.755C140.994 107.933 141.224 107.046 141.285 106.139L148.726 112.248L153.329 116.02L156.829 107.118C157.125 108.986 157.422 110.409 157.422 110.409C157.422 110.409 156.384 111.861 155.775 111.939C155.166 112.017 159.085 124.104 151.287 121.097Z" fill="#2C3A40"/>
<path d="M170.528 148.095L164.315 252.379L156.211 252.909L135.229 192.441L138.671 120.652L139.396 105.485L148.726 113.141L153.333 116.913L156.936 107.752L163.635 113.585L170.528 148.095Z" fill="#2C3A40"/>
<path opacity="0.1" d="M143.711 252.905C143.435 253.587 143.225 254.294 143.085 255.016C137.189 254.106 131.462 252.319 126.096 249.713L125.985 249.656L126.022 248.993L126.043 248.648L128.101 244.814C128.101 244.814 144.699 250.491 143.711 252.905Z" fill="#2C3A40"/>
<path opacity="0.1" d="M158.332 255.032C156.825 255.288 155.304 255.461 153.778 255.55C153.687 253.494 153.634 252.078 153.634 252.078L158.213 251.157L158.332 255.032Z" fill="#2C3A40"/>
<path opacity="0.1" d="M170.355 252.564C167.427 253.325 162.906 254.181 158.859 253.646L158.801 251.038L169.844 248.824C169.844 248.824 170.149 250.861 170.355 252.564Z" fill="#2C3A40"/>
<path opacity="0.1" d="M158.785 254.123C141.903 257.003 126.442 248.746 126.442 248.746L126.59 245.949C126.59 245.949 126.973 214.236 125.911 211.805C124.848 209.374 124.021 197.045 124.622 195.152C125.223 193.26 122.427 164.883 122.427 164.883L121.974 153.365L105.397 146.655L112.809 131.22C113.81 129.056 114.671 126.83 115.386 124.556C116.675 120.549 122.658 116.613 122.658 116.613C122.658 116.613 128.793 112.68 131.218 112.828C133.643 112.976 136.822 109.348 136.822 109.348C139.169 103.37 141.294 106.077 141.294 106.077C141.294 106.361 141.294 106.077 141.178 106.962C140.355 113.523 154.494 134.256 154.696 134.623L156.043 167.393L157.405 208.863L158.785 254.123Z" fill="#2C3A40"/>
<path d="M158.332 254.123C141.45 257.003 125.985 248.746 125.985 248.746L126.137 245.949C126.137 245.949 126.52 214.236 125.454 211.805C124.387 209.374 123.564 197.045 124.169 195.152C124.774 193.26 121.974 164.883 121.974 164.883L121.517 153.365L104.932 146.631L112.344 131.196C113.343 129.031 114.203 126.805 114.921 124.532C116.206 120.525 122.193 116.588 122.193 116.588C122.193 116.588 128.328 112.655 130.749 112.803C133.17 112.951 136.353 109.323 136.353 109.323C138.704 103.346 141.294 106.053 141.294 106.053C141.294 106.336 141.047 106.464 141.178 106.937C142.99 113.301 154.042 134.232 154.243 134.598L155.606 167.368L156.969 208.839L158.332 254.123Z" fill="white"/>
<path opacity="0.1" d="M153.782 135.532C151.966 134.775 142.348 123.803 142.348 123.803V121.306C141.998 120.484 139.919 120.986 138.23 121.561L138.955 106.394L139.779 107.077C141.582 113.437 153.572 135.166 153.782 135.532Z" fill="#2C3A40"/>
<path d="M154.239 134.623C152.419 133.866 142.801 122.894 142.801 122.894V120.397C142.451 119.574 140.371 120.076 138.683 120.652L139.412 105.485L140.236 106.168C142.043 112.528 154.037 134.261 154.239 134.623Z" fill="white"/>
<path opacity="0.1" d="M126.442 189.34C126.668 189.34 138.181 188.13 138.181 188.13C138.181 188.13 145.152 201.825 144.695 205.157C144.238 208.489 143.41 211.439 140.606 210.916C137.802 210.394 125.516 211.328 125.516 211.328L126.442 189.34Z" fill="#2C3A40"/>
<path d="M125.985 188.43C126.211 188.43 137.724 187.221 137.724 187.221C137.724 187.221 144.691 200.92 144.238 204.248C143.785 207.576 142.949 210.53 140.149 210.007C137.349 209.485 125.058 210.418 125.058 210.418L125.985 188.43Z" fill="white"/>
<path d="M134.66 182.001C134.66 182.001 145.226 187.674 145.452 189.406C145.679 191.137 140.075 188.649 138.864 188.348C138.068 188.156 137.257 188.03 136.439 187.97L128.365 188.188L134.66 182.001Z" fill="#CF6F80"/>
<path opacity="0.1" d="M150.834 136.239C151.448 136.239 151.946 135.742 151.946 135.129C151.946 134.515 151.448 134.018 150.834 134.018C150.22 134.018 149.722 134.515 149.722 135.129C149.722 135.742 150.22 136.239 150.834 136.239Z" fill="#2C3A40"/>
<path d="M150.834 135.787C151.448 135.787 151.946 135.29 151.946 134.676C151.946 134.063 151.448 133.565 150.834 133.565C150.22 133.565 149.722 134.063 149.722 134.676C149.722 135.29 150.22 135.787 150.834 135.787Z" fill="#3F3D56"/>
<path opacity="0.1" d="M152.88 184.321C153.494 184.321 153.992 183.824 153.992 183.21C153.992 182.597 153.494 182.099 152.88 182.099C152.266 182.099 151.769 182.597 151.769 183.21C151.769 183.824 152.266 184.321 152.88 184.321Z" fill="#2C3A40"/>
<path d="M152.88 183.864C153.494 183.864 153.992 183.367 153.992 182.754C153.992 182.14 153.494 181.643 152.88 181.643C152.266 181.643 151.769 182.14 151.769 182.754C151.769 183.367 152.266 183.864 152.88 183.864Z" fill="#3F3D56"/>
<path opacity="0.1" d="M151.942 160.28C152.556 160.28 153.053 159.783 153.053 159.169C153.053 158.556 152.556 158.059 151.942 158.059C151.328 158.059 150.83 158.556 150.83 159.169C150.83 159.783 151.328 160.28 151.942 160.28Z" fill="#2C3A40"/>
<path d="M151.942 159.828C152.556 159.828 153.053 159.33 153.053 158.717C153.053 158.103 152.556 157.606 151.942 157.606C151.328 157.606 150.83 158.103 150.83 158.717C150.83 159.33 151.328 159.828 151.942 159.828Z" fill="#3F3D56"/>
<path d="M177.569 187.739C177.569 187.739 178.327 188.875 177.569 189.405C176.811 189.936 177.643 191.22 177.643 191.22C177.643 191.22 175.753 192.326 176.585 193.322C177.417 194.317 176.89 198.814 176.89 198.814L174.617 202.573C174.617 202.573 174.753 204.996 174.761 208.271C174.761 213.38 174.46 220.563 172.797 223.837L173.027 250.704C173.027 250.704 165.068 253.609 158.406 252.724L157.418 209.612C157.418 209.612 158.859 185.164 159.39 180.474C159.701 178.04 159.828 175.585 159.769 173.131C159.769 173.131 159.542 165.792 158.781 162.386C158.781 162.386 157.957 147.63 157.875 143.545C157.838 141.591 157.941 135.89 158.056 130.468C158.184 124.54 158.328 118.949 158.328 118.949L156.825 107.069C156.825 107.069 158.328 106.916 158.781 107.521C158.984 107.71 159.204 107.88 159.44 108.027C162.034 109.78 171.199 115.169 171.199 115.169C171.199 115.169 176.272 117.184 177.487 120.072C178.701 122.96 179.545 125.009 180.134 125.831C180.723 126.654 181.044 130.521 181.044 130.521C181.044 130.521 182.79 137.638 184.153 138.843C185.516 140.049 186.512 147.717 186.512 147.717L174.468 157.178C174.468 157.178 173.41 172.917 173.184 173.526C172.957 174.135 177.569 187.739 177.569 187.739Z" fill="white"/>
<path d="M178.026 187.739C178.026 187.739 178.779 188.875 178.026 189.406C177.272 189.936 178.096 191.22 178.096 191.22C178.096 191.22 176.218 192.339 177.042 193.334C177.865 194.33 177.347 198.826 177.347 198.826L175.074 202.586C175.074 202.586 175.21 205.009 175.222 208.284C175.222 213.393 174.921 220.575 173.258 223.85L173.484 250.717C173.484 250.717 165.513 253.621 158.859 252.737L157.875 209.625C157.875 209.625 159.316 185.177 159.847 180.487C160.158 178.052 160.284 175.598 160.222 173.144C160.222 173.144 159.995 165.805 159.238 162.399C159.238 162.399 158.414 147.643 158.328 143.558C158.291 141.604 158.398 135.902 158.509 130.48C158.637 124.552 158.781 118.962 158.781 118.962L156.796 106.921C156.796 106.921 158.781 106.921 159.238 107.534C159.439 107.725 159.66 107.895 159.897 108.04C162.491 109.792 171.66 115.181 171.66 115.181C171.66 115.181 176.729 117.197 177.944 120.085C179.158 122.973 180.002 125.021 180.595 125.844C181.188 126.667 181.501 130.534 181.501 130.534C181.501 130.534 183.247 137.65 184.61 138.856C185.973 140.061 186.957 147.713 186.957 147.713L174.913 157.174C174.913 157.174 173.855 172.913 173.624 173.522C173.394 174.131 178.026 187.739 178.026 187.739Z" fill="white"/>
<path opacity="0.1" d="M163.602 122.454L164.689 125.622L158.966 131.381C159.094 125.457 159.238 119.862 159.238 119.862L157.253 107.822C157.253 107.822 159.238 107.822 159.695 108.434C159.895 108.626 160.116 108.794 160.354 108.936L165.221 122.964L163.602 122.454Z" fill="#2C3A40"/>
<path d="M163.145 121.545L164.236 124.713L158.513 130.472C158.641 124.544 158.785 118.953 158.785 118.953L156.796 106.912C156.796 106.912 158.785 106.912 159.238 107.525C159.44 107.716 159.66 107.885 159.897 108.031L164.768 122.055L163.145 121.545Z" fill="white"/>
<path opacity="0.1" d="M163.145 90.2022C163.149 91.6846 162.915 93.158 162.454 94.5669C162.376 94.579 162.296 94.5754 162.22 94.5563C162.144 94.5373 162.072 94.5031 162.009 94.4558C161.902 90.7534 160.078 87.2773 157.834 84.3195C157.204 83.4265 156.44 82.6356 155.569 81.9747C154.689 81.3141 153.594 81.0046 152.497 81.1067C151.262 81.2753 150.171 82.1145 148.923 82.2215C147.276 82.3573 145.802 81.2177 144.168 81.1601C143.503 81.1665 142.848 81.3143 142.245 81.5938C141.642 81.8733 141.106 82.278 140.672 82.781C139.813 83.7959 139.175 84.9783 138.799 86.253C138.151 88.1858 137.799 90.2049 137.753 92.2426C137.732 93.3944 137.621 94.8384 136.55 95.258C136.631 94.4109 136.535 93.5563 136.267 92.7483C136 91.9403 135.568 91.1966 134.998 90.5642L134.973 90.5395C134.973 90.4243 134.973 90.3174 134.973 90.2022C134.941 88.3335 135.282 86.4773 135.976 84.7416C136.669 83.0059 137.702 81.4256 139.013 80.0929C140.325 78.7601 141.889 77.7016 143.614 76.979C145.339 76.2564 147.191 75.8843 149.061 75.8843C150.932 75.8843 152.784 76.2564 154.509 76.979C156.234 77.7016 157.798 78.7601 159.109 80.0929C160.421 81.4256 161.453 83.0059 162.147 84.7416C162.841 86.4773 163.181 88.3335 163.149 90.2022H163.145Z" fill="#2C3A40"/>
<path d="M154.894 67.8523C152.754 66.8467 150.321 66.6565 148.05 67.3175C146.91 67.6548 145.835 68.2019 144.678 68.4776C142.208 69.0741 139.326 68.4282 137.205 69.8721C136.027 70.6949 135.319 71.9948 134.66 73.2577L133.013 76.3924C132.116 78.1079 131.21 79.8521 130.835 81.7403C130.461 83.6285 130.687 85.743 131.885 87.261C132.758 88.3676 134.047 89.0628 134.994 90.1036C135.561 90.7366 135.992 91.4799 136.258 92.2869C136.524 93.0939 136.621 93.9472 136.542 94.7932C137.617 94.3819 137.72 92.9338 137.744 91.782C137.79 89.7443 138.143 87.7252 138.79 85.7923C139.166 84.5173 139.804 83.3348 140.664 82.3203C141.098 81.8178 141.634 81.4133 142.237 81.1339C142.84 80.8544 143.495 80.7064 144.159 80.6995C145.806 80.7571 147.285 81.8925 148.915 81.7568C150.15 81.6539 151.246 80.8106 152.489 80.646C153.586 80.5424 154.681 80.852 155.561 81.514C156.431 82.174 157.194 82.965 157.821 83.8589C160.069 86.8167 161.894 90.2846 162.001 93.9952C162.466 94.3366 163.137 93.8923 163.368 93.3658C163.598 92.8392 163.606 92.2221 163.899 91.7203C164.236 91.1402 164.883 90.8317 165.389 90.3956C166.674 89.289 166.995 87.4255 166.946 85.7348C166.896 84.044 166.567 82.3286 166.888 80.6666C167.082 79.6464 167.518 78.692 167.757 77.6841C167.996 76.6763 168.024 75.545 167.46 74.677C166.637 73.4017 164.903 73.1508 163.392 73.0315C161.675 72.8834 160.139 73.0726 159.044 71.6287C158.53 70.8752 157.951 70.1677 157.315 69.5142C157.097 69.3003 154.894 67.9428 154.894 67.8523Z" fill="#512E4E"/>
<path opacity="0.1" d="M110.141 154.603L105.838 146.655L104.475 158.918C104.475 158.918 105.233 164.365 105.08 165.2C104.928 166.035 108.185 173.522 108.185 173.522C108.185 173.522 118.944 192.668 123.337 193.655L138.181 183.058L134.245 178.064C134.245 178.064 132.882 177.533 132.54 178.064C132.54 178.064 125.231 165.5 124.474 164.591C123.716 163.682 123.864 161.868 123.864 161.868C123.864 161.868 122.728 160.658 123.107 159.523C123.486 158.388 120.912 154.451 120.912 154.451L123.259 152.258L110.141 154.603Z" fill="#2C3A40"/>
<path d="M106.064 145.75L104.928 146.655L103.565 158.918C103.565 158.918 104.323 164.365 104.17 165.2C104.018 166.035 107.279 173.522 107.279 173.522C107.279 173.522 118.034 192.668 122.427 193.655L137.275 183.058L133.335 178.064C133.335 178.064 131.972 177.533 131.63 178.064C131.63 178.064 124.321 165.5 123.564 164.591C122.806 163.682 122.958 161.868 122.958 161.868C122.958 161.868 121.822 160.658 122.201 159.523C122.58 158.388 120.002 154.451 120.002 154.451L122.349 152.258L106.064 145.75Z" fill="white"/>
<path opacity="0.1" d="M176.585 193.791C177.408 194.79 176.89 199.278 176.89 199.278L174.617 203.038C174.617 203.038 174.753 205.466 174.761 208.736L170.94 209.929C170.594 210.037 170.228 210.06 169.872 209.998C169.516 209.936 169.179 209.789 168.891 209.57C168.603 209.352 168.372 209.068 168.216 208.741C168.06 208.415 167.985 208.056 167.996 207.695L168.655 186.464L177.569 189.87C176.811 190.397 177.643 191.689 177.643 191.689C177.643 191.689 175.753 192.791 176.585 193.791Z" fill="#2C3A40"/>
<path d="M177.042 193.334C177.865 194.334 177.347 198.826 177.347 198.826L175.074 202.586C175.074 202.586 175.21 205.009 175.222 208.284L171.331 209.497C170.993 209.602 170.634 209.625 170.286 209.564C169.937 209.502 169.608 209.359 169.326 209.144C169.044 208.93 168.817 208.652 168.665 208.333C168.512 208.013 168.438 207.662 168.449 207.309L169.112 186.012L178.03 189.418C177.268 189.944 178.1 191.232 178.1 191.232C178.1 191.232 176.218 192.339 177.042 193.334Z" fill="white"/>
<path d="M179.994 183.214C179.994 183.214 179.389 187.077 177.874 187.303C176.358 187.53 175.679 193.552 174.168 193.338C172.657 193.124 173.657 187.739 173.711 186.695C173.764 185.65 172.064 181.322 173.336 180.339C174.608 179.356 178.635 180.339 178.635 180.339L179.994 183.214Z" fill="#CF6F80"/>
<path opacity="0.1" d="M183.218 153.468L186.076 147.708C186.076 147.708 187.212 152.098 187.212 154.443C187.212 156.788 188.801 157.018 188.801 157.018C188.801 157.018 190.543 159.075 189.625 160.572C188.707 162.07 188.336 165.797 188.336 165.797C188.336 165.797 188.637 172.909 187.274 173.893C185.911 174.876 185.627 177.225 185.627 177.225C185.627 177.225 183.123 181.688 183.202 182.749C183.28 183.811 179.718 190.997 179.718 190.997C179.718 190.997 181.46 182.067 171.31 178.208C171.31 178.208 171.232 175.176 171.99 174.345C172.747 173.514 173.929 173.136 173.188 168.935C172.447 164.735 172.974 159.717 172.974 158.709C172.974 157.701 175.247 151.415 175.247 151.415L183.218 153.468Z" fill="#2C3A40"/>
<path d="M184.453 146.886L186.948 147.708C186.948 147.708 188.089 152.098 188.089 154.443C188.089 156.788 189.678 157.018 189.678 157.018C189.678 157.018 191.42 159.075 190.502 160.572C189.584 162.07 189.217 165.797 189.217 165.797C189.217 165.797 189.518 172.909 188.155 173.893C186.792 174.876 186.487 177.225 186.487 177.225C186.487 177.225 183.988 181.688 184.066 182.749C184.144 183.811 180.579 190.997 180.579 190.997C180.579 190.997 182.325 182.067 172.171 178.208C172.171 178.208 172.097 175.176 172.854 174.345C173.612 173.514 174.794 173.136 174.052 168.935C173.311 164.735 173.838 159.717 173.838 158.709C173.838 157.701 176.111 151.415 176.111 151.415L184.453 146.886Z" fill="white"/>
<path opacity="0.1" d="M129.341 296.161C129.341 296.161 133.318 293.664 135.929 295.479C138.539 297.293 129.341 296.161 129.341 296.161Z" fill="#2C3A40"/>
<path opacity="0.1" d="M160.247 288.44C160.247 288.44 163.767 287.987 166.723 291.167C169.68 294.347 160.247 288.44 160.247 288.44Z" fill="#2C3A40"/>
<g opacity="0.1">
<path opacity="0.1" d="M165.398 89.4948C164.891 89.9309 164.241 90.2435 163.903 90.8235C163.615 91.3213 163.606 91.9343 163.376 92.469C163.145 93.0038 162.474 93.4399 162.009 93.1026C161.902 89.4002 160.074 85.924 157.83 82.9621C157.202 82.0683 156.44 81.2772 155.569 80.6173C154.688 79.9553 153.591 79.6458 152.493 79.7493C151.258 79.918 150.171 80.7572 148.923 80.86C147.276 80.9999 145.798 79.8604 144.164 79.8028C143.499 79.8094 142.844 79.9578 142.242 80.238C141.64 80.5183 141.104 80.9239 140.672 81.4277C139.812 82.4406 139.174 83.6218 138.799 84.8956C138.151 86.8285 137.799 88.8476 137.753 90.8852C137.728 92.033 137.621 93.4646 136.559 93.8924C136.583 94.1963 136.583 94.5017 136.559 94.8057C137.629 94.3943 137.736 92.9462 137.761 91.7944C137.807 89.7567 138.159 87.7376 138.807 85.8048C139.183 84.5298 139.821 83.3472 140.68 82.3327C141.114 81.8303 141.649 81.4259 142.251 81.1464C142.853 80.8669 143.508 80.7188 144.172 80.7119C145.819 80.7695 147.301 81.9049 148.932 81.7692C150.167 81.6663 151.262 80.823 152.502 80.6584C153.599 80.555 154.696 80.8645 155.577 81.5264C156.448 82.1864 157.21 82.9774 157.838 83.8713C160.082 86.8291 161.91 90.297 162.017 94.0076C162.482 94.349 163.154 93.9047 163.384 93.3782C163.615 92.8516 163.623 92.2346 163.911 91.7327C164.249 91.1526 164.899 90.8441 165.406 90.408C166.69 89.3014 167.012 87.4379 166.962 85.7472C166.962 85.6937 166.962 85.6402 166.962 85.5908C166.884 87.0553 166.493 88.5486 165.398 89.4948Z" fill="#2C3A40"/>
<path opacity="0.1" d="M135.002 89.2028C134.055 88.162 132.762 87.4668 131.893 86.3643C131.162 85.3883 130.744 84.2135 130.695 82.9951C130.566 84.5176 130.991 86.0356 131.893 87.2693C132.762 88.3759 134.055 89.0711 135.002 90.1119C135.911 91.13 136.457 92.4204 136.554 93.7814C136.618 92.9531 136.513 92.1206 136.246 91.3339C135.979 90.5471 135.556 89.8223 135.002 89.2028Z" fill="#2C3A40"/>
<path opacity="0.1" d="M167.765 76.7833C167.522 77.7911 167.09 78.7496 166.892 79.7657C166.775 80.4447 166.732 81.1344 166.765 81.8226C166.778 81.4306 166.821 81.0401 166.892 80.6543C167.09 79.6341 167.522 78.6797 167.765 77.6718C167.907 77.1159 167.953 76.54 167.901 75.9688C167.875 76.2432 167.83 76.5154 167.765 76.7833Z" fill="#2C3A40"/>
</g>
<path opacity="0.1" d="M55.1515 312.888C77.3097 312.888 95.2724 310.006 95.2724 306.45C95.2724 302.894 77.3097 300.012 55.1515 300.012C32.9934 300.012 15.0306 302.894 15.0306 306.45C15.0306 310.006 32.9934 312.888 55.1515 312.888Z" fill="#2C3A40"/>
<path d="M56.4445 183.12H53.8628V241.193H56.4445V183.12Z" fill="#535461"/>
<path d="M72.6674 241.017L72.5068 243.633L72.2762 247.335L72.1815 248.874L71.955 252.576L71.8562 254.115L71.6256 257.817L69.0234 299.806C68.9103 301.613 68.1124 303.309 66.7921 304.548C65.4718 305.788 63.7284 306.478 61.9166 306.479H48.3865C46.5751 306.478 44.8321 305.788 43.5125 304.548C42.1929 303.308 41.3959 301.613 41.2838 299.806L38.6939 257.788L38.4633 254.086L38.3686 252.548L38.138 248.845L38.0433 247.307L37.8127 243.604L37.648 240.988C37.6194 240.484 37.6941 239.98 37.8675 239.507C38.0409 239.033 38.3093 238.6 38.6563 238.233C39.0033 237.867 39.4216 237.575 39.8854 237.376C40.3493 237.177 40.849 237.075 41.3538 237.076H69.0275C69.5304 237.08 70.0271 237.187 70.487 237.391C70.9468 237.594 71.36 237.89 71.7011 238.259C72.0421 238.629 72.3038 239.064 72.47 239.538C72.6362 240.012 72.7034 240.515 72.6674 241.017Z" fill="#3F3D56"/>
<path d="M72.5068 243.633L72.2762 247.323H38.0268L37.7963 243.633H72.5068Z" fill="#9D9CB5"/>
<path d="M72.1815 248.862L71.9551 252.556H38.3522L38.1216 248.862H72.1815Z" fill="#9D9CB5"/>
<path d="M71.8563 254.098L71.6298 257.788H38.6775L38.4469 254.098H71.8563Z" fill="#9D9CB5"/>
<path d="M33.8558 204.885C48.8888 215.754 55.1639 232.752 55.1639 232.752C55.1639 232.752 37.0469 232.131 22.0098 221.262C6.97268 210.394 0.709961 193.4 0.709961 193.4C0.709961 193.4 18.8187 194.017 33.8558 204.885Z" fill="#2C3A40"/>
<path d="M0.697632 193.4C0.697632 193.4 19.5064 203.828 25.5385 212.463C31.5706 221.098 55.1639 232.752 55.1639 232.752" stroke="#535461" stroke-width="2" stroke-miterlimit="10"/>
<path d="M43.5608 182.992C51.7423 188.904 55.1639 198.155 55.1639 198.155C55.1639 198.155 45.3025 197.818 37.1169 191.907C28.9314 185.995 25.5179 176.739 25.5179 176.739C25.5179 176.739 35.3752 177.077 43.5608 182.992Z" fill="#2C3A40"/>
<path d="M25.5179 176.739C25.5179 176.739 35.754 182.416 39.0357 187.114C42.3173 191.812 55.1639 198.155 55.1639 198.155" stroke="#535461" stroke-width="2" stroke-miterlimit="10"/>
<path d="M67.0429 197.686C57.6427 208.008 55.6539 221.497 55.6539 221.497C55.6539 221.497 68.9082 218.247 78.3002 207.922C87.6922 197.596 89.6892 184.111 89.6892 184.111C89.6892 184.111 76.4432 187.365 67.0429 197.686Z" fill="#2C3A40"/>
<path d="M89.6974 184.115C89.6974 184.115 77.452 194.696 74.3391 201.985C71.2263 209.275 55.6539 221.497 55.6539 221.497" stroke="#535461" stroke-width="2" stroke-miterlimit="10"/>
<path d="M412.114 194.054C412.114 194.054 405.316 160.264 407.918 156.059C407.918 156.059 408.013 152.151 407.856 147.17C407.856 146.98 407.856 146.791 407.856 146.598C408.314 146.903 408.792 147.178 409.285 147.421C411.683 148.651 414.435 149.006 417.067 148.424L415.009 146.133C414.514 145.586 414 144.993 413.893 144.269C413.786 143.545 414.082 142.9 414.337 142.254C416.293 137.317 416.396 131.109 412.629 127.341C409.446 124.174 408.672 120.085 405.217 117.193C402.693 115.074 401.306 111.968 399.996 108.965C398.889 106.427 397.773 103.868 397.139 101.178C396.645 99.0757 396.447 96.8995 395.768 94.8467C395.088 92.794 393.816 90.7988 391.827 89.8814C391.119 89.5565 390.332 89.3713 389.686 88.9394C388.838 88.3676 388.327 87.4379 387.714 86.6234C384.597 82.5096 374.159 84.9326 369.218 86.6028C367.875 87.0234 366.631 87.7119 365.562 88.6268L365.607 88.5527C365.644 88.491 365.689 88.4293 365.73 88.3676C365.19 88.8045 364.722 89.3254 364.347 89.9102C363.626 91.0498 363.326 92.3785 362.725 93.6126C362 95.073 357.969 99.1497 359.702 100.791C359.824 100.901 359.963 100.99 360.114 101.054C360.765 101.325 361.481 101.397 362.173 101.26L362.099 101.437C361.507 102.885 361.203 104.435 361.205 105.999C361.205 112.758 366.784 118.238 373.673 118.238C374.968 118.239 376.255 118.04 377.49 117.649C377.519 117.806 377.543 117.962 377.572 118.118C377.572 118.18 377.593 118.242 377.601 118.303L377.383 118.608C377.372 118.589 377.36 118.571 377.346 118.554L370.881 127.58C369.893 128.275 364.203 132.389 363.882 135.474C363.544 138.852 363.206 142.805 363.206 142.805L363.161 143.652C362.879 143.888 362.548 144.06 362.193 144.156C361.837 144.252 361.465 144.269 361.102 144.208C359.085 143.879 359.085 151.612 359.085 151.612C359.085 151.612 357.742 152.847 356.82 151.777C355.898 150.707 353.46 154.332 353.46 154.332L338.184 154.99L337.834 155.01L337.011 152.464C336.922 152.195 336.731 151.973 336.479 151.844C336.227 151.715 335.934 151.691 335.664 151.777C335.601 151.798 335.539 151.824 335.479 151.855L335.421 151.888L335.314 151.962L335.261 152.011C335.231 152.038 335.204 152.067 335.178 152.098L335.129 152.155L335.104 152.18C335.009 152.311 334.946 152.463 334.921 152.623C334.895 152.783 334.907 152.947 334.956 153.102L335.664 155.286C332.716 155.878 329.702 157.549 332.16 162.148L319.701 159.848L323.732 163.23L344.542 167.52C344.266 168.014 344.447 168.73 345.308 169.738C349.013 174.086 355.766 175.267 358.484 175.571C359.201 177.175 360.098 178.693 361.156 180.096L360.921 184.428C360.921 184.428 354.041 217.445 352.781 219.119C353.417 218.399 353.999 217.633 354.522 216.828C352.526 223.611 349.734 232.896 349.001 234.287C347.823 236.508 346.732 245.497 348.075 246.072C348.486 246.249 349.664 246.163 351.344 246.035V246.78L351.27 274.996C351.27 274.996 351.607 292.303 350.681 293.952C349.754 295.602 349.507 299.062 349.507 299.062C349.507 299.062 345.802 305.886 342.866 308.63C342.846 308.652 342.824 308.671 342.8 308.688L342.709 308.046C342.709 308.046 339.181 312.497 331.374 312.246C331.374 312.246 326.676 315.299 333.643 315.463C340.609 315.628 349.507 315.216 349.507 315.216C349.507 315.216 355.721 305.755 360.925 306.989V314.159H362.519V306.874C363.258 306.388 363.89 305.757 364.378 305.019C364.865 304.282 365.198 303.453 365.356 302.583C365.492 301.687 365.392 300.77 365.066 299.924C364.739 299.078 364.198 298.331 363.495 297.758C363.179 297.472 362.925 297.125 362.75 296.737C362.575 296.349 362.482 295.929 362.478 295.503L362.42 295.553C362.42 295.409 362.383 295.261 362.366 295.108C361.909 291.406 361.337 283.767 363.359 278.115C366.13 270.364 366.97 259.57 364.952 253.144C364.301 251.09 363.766 249.001 363.35 246.887C363.301 246.62 363.256 246.365 363.215 246.126C364.594 246.312 365.959 246.587 367.303 246.949C371.977 248.236 382.2 248.475 390.929 248.405C390.95 248.644 390.975 248.895 391.004 249.145C391.159 250.89 391.485 252.615 391.975 254.296C393.071 257.587 393.573 272.096 393.573 272.096C393.573 272.096 394.985 284.026 394.215 288.88C393.803 291.579 393.392 294.29 393.157 297.013V297.067C393.157 297.067 390.843 303.649 389.151 307.223C389.11 307.314 389.064 307.404 389.023 307.491C388.572 307.532 388.128 307.63 387.701 307.783C387.701 307.783 385.433 312.308 383.172 313.057C380.912 313.805 381.661 316.27 386.779 315.365C391.897 314.46 399.626 313.719 399.626 313.719L399.959 309.103L401.532 307.137L401.12 311.74L402.796 311.411L402.574 305.812L405.147 302.595C405.147 302.595 408.256 299.831 403.636 294.393V294.512C403.587 294.434 403.541 294.351 403.488 294.273V294.249C402.722 293.064 402.113 290.855 403.228 286.934C405.246 279.851 406.419 273.421 406.419 273.421C406.419 273.421 410.924 256.196 405.509 248.047H405.748C405.193 246.9 404.801 245.682 404.583 244.427C404.556 244.279 404.531 244.127 404.509 243.97C408.515 243.74 412.447 243.016 415.655 241.453C415.643 241.436 413.712 200.562 412.114 194.054ZM361.251 165.546V165.628L360.427 165.669L361.251 165.546ZM358.426 165.937C358.291 165.967 358.164 166.027 358.055 166.113C357.701 166.614 357.479 167.195 357.409 167.804L356.124 167.516C356.124 167.516 355.222 167.323 353.925 167.105L353.312 166.488C355 166.348 356.754 166.142 358.426 165.937Z" fill="url(#paint1_linear_7_188)"/>
<path d="M400.931 305.87L400.441 311.699L402.084 311.37L401.837 305.047L400.931 305.87Z" fill="#2C3A40"/>
<path d="M363.449 278.193C361.469 283.828 362.029 291.435 362.473 295.129C362.638 296.495 362.79 297.326 362.79 297.326C362.79 297.326 359.83 304.064 359.583 304.319C359.336 304.574 350.87 309.737 350.87 309.737L344.953 313.188C344.953 313.188 338.95 310.56 341.828 309.655C342.416 309.419 342.946 309.058 343.38 308.597C346.263 305.862 349.882 299.062 349.882 299.062C349.882 299.062 350.129 295.61 351.035 293.969C351.941 292.327 351.611 275.079 351.611 275.079L351.681 246.961V243.296L362.943 243.378C363.014 244.622 363.176 245.86 363.429 247.08C363.833 249.187 364.357 251.269 364.997 253.317C366.982 259.73 366.158 270.471 363.449 278.193Z" fill="#FFB0B1"/>
<path opacity="0.1" d="M362.79 297.326C362.79 297.326 359.83 304.064 359.583 304.319C359.336 304.574 350.87 309.737 350.87 309.737L344.953 313.188C344.953 313.188 338.95 310.56 341.828 309.655C342.416 309.419 342.946 309.058 343.38 308.597L343.636 310.395L345.608 310.313L362.49 295.137C362.638 296.495 362.79 297.326 362.79 297.326Z" fill="#2C3A40"/>
<path d="M362.585 295.52L345.608 310.798L343.636 310.881L343.224 308.001C343.224 308.001 339.774 312.436 332.107 312.189C332.107 312.189 327.503 315.229 334.326 315.393C341.149 315.558 349.861 315.147 349.861 315.147C349.861 315.147 355.947 305.685 361.04 306.919V314.065H362.605V306.853C363.333 306.364 363.953 305.733 364.43 304.997C364.907 304.262 365.23 303.438 365.38 302.575C365.516 301.686 365.42 300.776 365.102 299.935C364.784 299.093 364.254 298.348 363.564 297.77C363.256 297.481 363.01 297.133 362.842 296.746C362.673 296.359 362.586 295.942 362.585 295.52Z" fill="#2C3A40"/>
<path d="M402.495 286.98C401.4 290.888 401.997 293.089 402.747 294.269V294.294C403.708 295.752 404.376 297.382 404.715 299.095L404.781 299.465L397.056 310.716L392.865 312.361C392.865 312.361 386.124 310.062 387.355 309.404C387.664 309.243 388.146 308.388 388.698 307.207C390.345 303.649 392.618 297.083 392.618 297.083V297.03C392.856 294.319 393.235 291.616 393.655 288.925C394.409 284.084 393.025 272.199 393.025 272.199C393.025 272.199 392.531 257.747 391.461 254.46C390.977 252.789 390.656 251.076 390.501 249.343C390.279 247.286 390.229 245.591 390.229 245.591C390.229 245.591 394.668 239.421 402.804 246.085C403.455 246.616 404.027 247.237 404.505 247.928C410.125 255.917 405.6 273.515 405.6 273.515C405.6 273.515 404.468 279.916 402.495 286.98Z" fill="#FFB0B1"/>
<path opacity="0.1" d="M404.793 299.465L397.069 310.716L392.877 312.361C392.877 312.361 386.137 310.062 387.368 309.404C387.677 309.243 388.158 308.388 388.71 307.207C391.563 307.182 393.042 309.897 393.042 309.897L396.657 309.321C396.657 309.321 401.425 299.958 402.495 299.387C403.566 298.815 402.66 295.112 402.66 295.112V294.17C402.689 294.203 402.714 294.24 402.747 294.273V294.298C403.708 295.756 404.376 297.386 404.715 299.099L404.793 299.465Z" fill="#2C3A40"/>
<path d="M393.289 310.14C393.289 310.14 391.23 306.364 387.285 307.758C387.285 307.758 385.066 312.283 382.847 313.016C380.627 313.748 381.369 316.216 386.384 315.315C391.399 314.414 398.958 313.67 398.958 313.67L399.288 309.066L404.385 302.579C404.385 302.579 407.424 299.827 402.903 294.409V295.351C402.903 295.351 403.809 299.053 402.738 299.625C401.668 300.197 396.916 309.564 396.916 309.564L393.289 310.14Z" fill="#2C3A40"/>
<path opacity="0.1" d="M362.955 243.37C363.026 244.614 363.188 245.851 363.441 247.072C358.805 246.393 354.502 246.731 351.681 246.953V243.287L362.955 243.37Z" fill="#2C3A40"/>
<path opacity="0.1" d="M404.962 248.952C404.962 248.952 398.374 249.273 390.518 249.339C390.295 247.282 390.246 245.587 390.246 245.587C390.246 245.587 394.684 239.416 402.821 246.081C403.471 246.612 404.044 247.233 404.521 247.924C404.649 248.274 404.796 248.618 404.962 248.952Z" fill="#2C3A40"/>
<path d="M404.962 248.212C404.962 248.212 376.106 249.606 367.311 247.142C358.516 244.678 349.8 246.813 348.486 246.241C347.173 245.669 348.239 236.714 349.392 234.496C350.545 232.279 356.869 209.855 356.869 209.855L362.955 178.154L369.366 176.39L369.819 176.262L380.99 173.185L389.175 170.927C389.175 170.927 405.452 234.414 404.056 239.096C403.549 240.888 403.467 242.774 403.817 244.604C404.03 245.853 404.416 247.068 404.962 248.212Z" fill="#2C3A40"/>
<path d="M341.742 156.475C341.742 156.475 335.977 162.645 340.342 166.085C344.706 169.524 347.576 166.414 347.576 166.414L341.742 156.475Z" fill="#C7DAF5"/>
<path opacity="0.1" d="M341.742 156.475C341.742 156.475 335.977 162.645 340.342 166.085C344.706 169.524 347.576 166.414 347.576 166.414L341.742 156.475Z" fill="#2C3A40"/>
<path d="M388.315 115.905C388.315 115.905 387.64 116.547 386.623 117.493C385.173 118.846 383.028 120.825 381.126 122.483C378.49 124.774 376.316 126.457 377.095 125.021C377.873 123.585 377.725 121.084 377.338 118.743C377.309 118.587 377.284 118.431 377.255 118.279C376.935 116.56 376.51 114.862 375.983 113.194C375.983 113.194 380.24 107.698 382.596 105.53C383.473 104.707 384.086 104.37 384.123 104.942C384.164 105.711 384.741 107.41 385.457 109.212C385.478 109.27 385.498 109.323 385.523 109.381C386.001 110.615 386.54 111.882 387.014 112.976C387.738 114.654 388.315 115.905 388.315 115.905Z" fill="#FFB0B1"/>
<path opacity="0.1" d="M385.523 109.381C385.123 111.531 384.152 113.534 382.712 115.181C381.272 116.828 379.416 118.058 377.338 118.744C377.01 116.866 376.558 115.012 375.983 113.194C375.983 113.194 384 102.848 384.123 104.942C384.152 105.736 384.778 107.497 385.523 109.381Z" fill="#2C3A40"/>
<path opacity="0.1" d="M376.539 121.508L377.576 120.048C377.576 120.048 378.264 124.235 380.792 122.388C383.32 120.541 383.444 136.289 383.444 136.289L380.73 176.822L361.123 175.649L361.679 156.064L363.898 146.191L369.387 131.838L372.652 127.094L376.539 121.508Z" fill="#2C3A40"/>
<path d="M383.444 136.54L380.973 173.189L380.714 177.072L369.782 176.418L369.37 176.394L361.135 175.9L361.691 156.31L363.91 146.437L369.399 132.084L372.664 127.341L376.551 121.734L377.589 120.278C377.589 120.278 378.276 124.466 380.804 122.619L380.858 122.582C383.328 121.018 383.444 136.54 383.444 136.54Z" fill="#2C3A40"/>
<path d="M364.186 143.006C364.186 143.006 363.202 145.063 361.226 144.73C359.249 144.397 359.253 152.135 359.253 152.135C359.253 152.135 357.94 153.369 357.034 152.299C356.128 151.23 353.74 154.846 353.74 154.846L338.777 155.504C338.777 155.504 345.435 158.544 344.13 167.742C344.13 167.742 366.735 166.344 367.476 164.209C368.217 162.074 364.186 143.006 364.186 143.006Z" fill="white"/>
<path opacity="0.03" d="M364.186 143.006C364.186 143.006 363.202 145.063 361.226 144.73C359.249 144.397 359.253 152.135 359.253 152.135C359.253 152.135 357.94 153.369 357.034 152.299C356.128 151.23 353.74 154.846 353.74 154.846L338.777 155.504C338.777 155.504 345.435 158.544 344.13 167.742C344.13 167.742 366.735 166.344 367.476 164.209C368.217 162.074 364.186 143.006 364.186 143.006Z" fill="#2C3A40"/>
<path d="M320.701 160.338L324.646 163.703L357.116 170.519L353.09 166.414L320.701 160.338Z" fill="white"/>
<path d="M376.601 122.804C376.061 123.627 374.517 127.839 373.228 131.517C372.154 134.582 371.256 137.276 371.256 137.276C371.256 137.276 369.16 150.909 368.09 153.373C367.019 155.837 367.6 165.447 367.6 165.447L363.61 189.179C363.61 189.179 361.802 201.418 359.011 208.728C356.256 215.923 353.188 219.296 353.094 219.403C354.329 217.733 361.061 184.848 361.061 184.848L363.285 143.373C363.285 143.373 363.61 139.432 363.939 136.063C364.269 132.693 370.939 128.094 370.939 128.094L377.371 118.958C378.017 119.821 377.585 121.327 376.601 122.804Z" fill="white"/>
<path d="M359.83 176.106C359.83 176.106 350.36 175.694 345.773 170.19C341.186 164.686 356.375 167.993 356.375 167.993L360.324 168.898L359.83 176.106Z" fill="#FFB0B1"/>
<path opacity="0.1" d="M404.056 239.1C403.549 240.892 403.467 242.778 403.817 244.608C393.486 245.34 382.435 242.551 382.435 242.551C380.376 244.443 374.954 247.232 374.954 247.232L371.997 210.62C370.107 205.684 369.366 179.82 369.366 179.82C369.366 179.82 369.535 178.467 369.778 176.439C369.778 176.39 369.778 176.336 369.798 176.287C370.535 170.622 371.997 159.988 372.714 158.552C373.702 156.578 369.675 151.324 369.675 151.324L371.507 135.713L371.73 133.829C375.592 132.105 378.552 126.601 378.552 126.601L380.825 122.623C383.296 121.039 383.423 136.56 383.423 136.56L380.953 173.21L389.138 170.951C389.138 170.951 405.452 234.418 404.056 239.1Z" fill="#2C3A40"/>
<path d="M414.658 241.63C403.397 247.216 382.929 242.041 382.929 242.041C380.87 243.933 375.448 246.722 375.448 246.722L372.487 210.11C370.601 205.174 369.86 179.31 369.86 179.31C369.86 179.31 372.24 160.013 373.228 158.042C373.516 157.466 373.376 156.611 373.035 155.689C371.355 151.303 370.737 146.582 371.231 141.912L372.022 135.203L372.24 133.323C376.106 131.595 379.067 126.091 379.067 126.091L381.126 122.487L384.914 115.847L386.709 112.705L387.014 112.98L389.34 115.086C389.34 115.086 390.328 115.909 391.81 117.143C395.034 119.858 400.605 124.639 403.479 127.563C406.008 130.139 406.806 140.156 407.037 147.696C407.189 152.661 407.099 156.553 407.099 156.553C404.55 160.745 411.216 194.4 411.216 194.4C412.769 200.903 414.658 241.63 414.658 241.63Z" fill="white"/>
<path opacity="0.03" d="M393.042 126.008C393.042 126.008 385.313 140.707 386.211 146.293C387.108 151.88 389.661 158.203 388.43 159.68C388.007 160.239 387.46 160.693 386.832 161.007C386.204 161.32 385.513 161.484 384.811 161.485C383.576 161.568 380.282 163.867 380.282 164.114C380.282 164.361 377.239 164.361 374.517 165.513C371.795 166.665 367.777 167.319 367.777 167.319C367.777 167.319 359.953 167.072 359.225 167.812C358.496 168.553 357.746 172.983 359.307 176.517C360.867 180.051 362.601 182.688 363.91 183.169C365.22 183.65 373.529 180.87 380.269 180.211C387.01 179.553 394.326 174.218 394.326 174.218C394.326 174.218 402.384 171.338 403.797 166.496C405.209 161.654 402.071 135.042 402.071 135.042C402.071 135.042 399.7 122.639 393.042 126.008Z" fill="#2C3A40"/>
<path opacity="0.03" d="M392.054 124.774C392.054 124.774 384.325 139.477 385.231 145.059C386.137 150.642 388.681 156.969 387.446 158.45C387.025 159.01 386.479 159.464 385.851 159.778C385.224 160.091 384.532 160.255 383.831 160.256C382.596 160.338 379.302 162.637 379.302 162.884C379.302 163.131 376.259 163.131 373.537 164.279C370.815 165.427 366.797 166.085 366.797 166.085C366.797 166.085 358.974 165.838 358.249 166.578C357.524 167.319 356.767 171.753 358.331 175.283C359.896 178.813 361.625 181.454 362.935 181.935C364.244 182.416 372.553 179.635 379.293 178.981C386.034 178.327 393.351 172.983 393.351 172.983C393.351 172.983 401.404 170.104 402.8 165.266C404.196 160.428 401.075 133.808 401.075 133.808C401.075 133.808 398.712 121.409 392.054 124.774Z" fill="#2C3A40"/>
<path d="M392.799 125.268C392.799 125.268 385.07 139.97 385.976 145.553C386.882 151.135 389.427 157.462 388.195 158.939C387.774 159.5 387.228 159.956 386.599 160.27C385.971 160.585 385.279 160.748 384.576 160.749C383.341 160.831 380.047 163.131 380.047 163.374C380.047 163.616 377.008 163.62 374.282 164.772C371.557 165.924 367.542 166.578 367.542 166.578C367.542 166.578 359.719 166.331 358.99 167.072C358.261 167.812 357.512 172.247 359.072 175.777C360.633 179.306 362.366 181.947 363.676 182.428C364.985 182.91 373.294 180.129 380.035 179.471C386.775 178.812 394.092 173.477 394.092 173.477C394.092 173.477 402.15 170.597 403.562 165.755C404.974 160.914 401.857 134.302 401.857 134.302C401.857 134.302 399.453 121.919 392.799 125.268Z" fill="white"/>
<path opacity="0.1" d="M392.63 164.702C392.63 164.702 386.454 163.468 388.603 165.525C390.752 167.582 390.74 169.384 393.371 169.302C396.002 169.219 392.63 164.702 392.63 164.702Z" fill="#2C3A40"/>
<path opacity="0.1" d="M403.068 208.958C403.068 208.958 400.276 210.846 405.617 215.199C410.957 219.551 403.068 208.958 403.068 208.958Z" fill="#2C3A40"/>
<path opacity="0.1" d="M397.74 224.479C397.74 224.726 396.752 233.529 400.449 235.73C404.147 237.931 397.74 224.479 397.74 224.479Z" fill="#2C3A40"/>
<path d="M339.032 155.483C336.051 155.586 329.612 156.495 332.951 162.719C335.903 168.228 340.865 164.546 343.656 161.753C342.975 159.149 341.32 156.905 339.032 155.483Z" fill="#FFB0B1"/>
<path d="M343.693 161.704L343.818 161.576L343.693 161.704Z" fill="#FFB0B1"/>
<path opacity="0.1" d="M391.811 117.394C388.648 119.554 385.997 121.376 385.478 121.755C384.061 122.804 381.36 128.962 379.619 132.105C378.231 134.635 373.722 135.285 372.022 135.445L372.24 133.565C376.106 131.838 379.067 126.333 379.067 126.333L386.709 112.947L389.34 115.337C389.34 115.337 390.328 116.16 391.811 117.394Z" fill="#2C3A40"/>
<path d="M391.811 117.147C388.648 119.307 385.997 121.13 385.478 121.512C384.061 122.557 381.36 128.715 379.619 131.858C378.231 134.388 373.722 135.038 372.022 135.199L372.24 133.319C376.106 131.591 379.067 126.087 379.067 126.087L386.709 112.7L389.34 115.082C389.34 115.082 390.328 115.897 391.811 117.147Z" fill="#DCE7FF"/>
<path d="M385.725 106.666C385.727 109.135 384.977 111.547 383.576 113.581C381.92 115.986 379.457 117.718 376.633 118.464C373.808 119.21 370.81 118.919 368.182 117.645C365.553 116.371 363.469 114.198 362.307 111.52C361.145 108.842 360.983 105.837 361.849 103.049C362.716 100.262 364.553 97.8771 367.029 96.3276C369.505 94.7782 372.455 94.1667 375.343 94.6042C378.231 95.0417 380.867 96.4991 382.772 98.7121C384.677 100.925 385.724 103.747 385.725 106.666Z" fill="#FFB0B1"/>
<path opacity="0.1" d="M407.037 147.7C405.365 146.672 404.003 145.211 403.097 143.471C402.409 142.114 401.952 140.546 400.778 139.584C399.72 138.72 398.308 138.51 396.99 138.123C392.659 136.844 389.027 132.895 388.891 128.386C388.825 126.263 389.488 124.145 389.188 122.043C389.017 120.853 388.543 119.727 387.812 118.772C387.45 118.316 387.052 117.888 386.623 117.493C386.046 116.95 385.441 116.423 384.914 115.847C384.582 115.491 384.292 115.097 384.049 114.675C383.853 114.329 383.695 113.964 383.576 113.585C382.752 111.067 383.501 108.081 382.596 105.534L382.546 105.394C382.204 104.489 381.509 103.584 380.541 103.514C379.573 103.444 378.746 104.247 377.823 104.604C375.892 105.353 373.809 104.078 372.199 102.778C370.589 101.478 368.773 99.9929 366.727 100.281C365.372 100.474 364.302 101.396 363.054 101.873C362.772 101.982 362.482 102.066 362.185 102.124C363.241 99.4931 365.181 97.3119 367.671 95.9549C370.162 94.5979 373.048 94.1499 375.833 94.6877C378.619 95.2256 381.13 96.7158 382.935 98.9023C384.74 101.089 385.726 103.835 385.725 106.67C385.726 107.525 385.637 108.379 385.457 109.216C385.478 109.274 385.498 109.327 385.523 109.385C386.001 110.619 386.54 111.886 387.014 112.98L389.34 115.086C389.34 115.086 390.328 115.909 391.811 117.143C395.035 119.858 400.606 124.638 403.48 127.563C406.008 130.147 406.798 140.16 407.037 147.7Z" fill="#2C3A40"/>
<path d="M362.91 94.3573C363.499 93.1602 363.791 91.8191 364.495 90.6837C365.529 89.0382 367.332 87.9851 369.185 87.3475C374.023 85.6814 384.247 83.2625 387.302 87.3475C387.903 88.1702 388.401 89.0835 389.233 89.6512C389.867 90.0831 390.633 90.2682 391.329 90.5932C393.276 91.5065 394.52 93.4975 395.183 95.5297C395.846 97.5619 396.043 99.7422 396.529 101.836C397.151 104.522 398.242 107.069 399.329 109.599C400.61 112.585 401.968 115.683 404.439 117.793C407.811 120.673 408.556 124.75 411.686 127.909C415.391 131.661 415.272 137.852 413.361 142.768C413.11 143.414 412.826 144.088 412.925 144.775C413.024 145.462 413.534 146.088 414.016 146.635L416.042 148.918C411.249 150.074 405.826 147.573 403.595 143.183C402.907 141.826 402.45 140.263 401.273 139.296C400.218 138.432 398.802 138.226 397.489 137.84C393.157 136.556 389.525 132.603 389.389 128.094C389.324 125.976 389.986 123.857 389.686 121.759C389.519 120.561 389.043 119.427 388.307 118.468C387.174 116.991 385.465 116 384.543 114.354C382.983 111.602 384.168 108.027 383.044 105.074C382.699 104.169 382.007 103.264 381.039 103.194C380.072 103.124 379.244 103.926 378.318 104.284C376.391 105.032 374.307 103.761 372.697 102.457C371.087 101.153 369.271 99.6723 367.221 99.9643C365.866 100.154 364.8 101.075 363.552 101.556C362.63 101.91 360.76 102.227 359.953 101.449C358.249 99.8821 362.197 95.8218 362.91 94.3573Z" fill="#591D4B"/>
<path opacity="0.1" d="M404.74 141.826C404.048 140.468 403.595 138.905 402.417 137.942C401.363 137.079 399.947 136.869 398.629 136.482C394.302 135.203 390.67 131.249 390.53 126.741C390.464 124.622 391.127 122.499 390.831 120.401C390.658 119.211 390.183 118.085 389.451 117.131C388.315 115.654 386.606 114.663 385.688 113.017C384.127 110.269 385.313 106.694 384.185 103.737C383.843 102.836 383.147 101.931 382.184 101.857C381.22 101.783 380.385 102.593 379.462 102.951C377.535 103.7 375.448 102.424 373.842 101.124C372.236 99.8244 370.412 98.3394 368.366 98.6273C367.011 98.8207 365.94 99.7422 364.697 100.219C363.775 100.573 361.901 100.894 361.094 100.117C359.398 98.471 363.346 94.419 364.055 92.9627C364.643 91.7615 364.936 90.4245 365.644 89.2891C365.681 89.2274 365.722 89.1657 365.763 89.104C365.234 89.5425 364.776 90.0617 364.409 90.6425C363.705 91.7779 363.412 93.1108 362.823 94.3161C362.111 95.7724 358.162 99.8368 359.863 101.47C360.686 102.252 362.539 101.931 363.462 101.577C364.697 101.096 365.776 100.174 367.13 99.9849C369.189 99.6928 371.001 101.178 372.607 102.478C374.212 103.778 376.312 105.053 378.231 104.304C379.153 103.946 379.96 103.14 380.949 103.214C381.937 103.288 382.596 104.189 382.954 105.094C384.078 108.048 382.892 111.623 384.453 114.375C385.375 115.991 387.084 117.003 388.216 118.489C388.953 119.448 389.428 120.582 389.595 121.78C389.896 123.878 389.233 125.996 389.299 128.115C389.435 132.64 393.066 136.577 397.398 137.86C398.703 138.247 400.128 138.453 401.182 139.316C402.364 140.283 402.829 141.846 403.504 143.204C405.736 147.593 411.159 150.095 415.951 148.939L414.996 147.861C410.842 147.922 406.638 145.561 404.74 141.826Z" fill="#2C3A40"/>
<path opacity="0.1" d="M376.353 123.051C375.814 123.873 374.27 128.086 372.981 131.764C371.775 131.295 370.68 128.304 370.68 128.304L377.111 119.163C377.77 120.068 377.338 121.57 376.353 123.051Z" fill="#2C3A40"/>
<path d="M376.6 122.804C376.061 123.627 374.517 127.839 373.228 131.517C372.022 131.052 370.927 128.057 370.927 128.057L377.358 118.92C378.017 119.821 377.584 121.327 376.6 122.804Z" fill="#DCE7FF"/>
<path d="M339.205 164.83L335.64 153.595C335.597 153.464 335.582 153.325 335.593 153.187C335.605 153.05 335.643 152.916 335.707 152.793C335.77 152.67 335.857 152.561 335.963 152.472C336.069 152.383 336.191 152.316 336.323 152.275C336.588 152.192 336.876 152.217 337.123 152.345C337.369 152.473 337.556 152.693 337.641 152.958L341.206 164.18L340.852 166.529L339.205 164.83Z" fill="#BE8B87"/>
<path opacity="0.1" d="M335.977 152.608C336.243 152.524 336.532 152.549 336.779 152.677C337.027 152.805 337.214 153.026 337.299 153.291L340.865 164.513L340.597 166.274L340.856 166.545L341.211 164.196L337.624 152.974C337.539 152.71 337.353 152.49 337.106 152.362C336.859 152.234 336.572 152.208 336.307 152.291C336.083 152.364 335.891 152.508 335.759 152.703C335.829 152.665 335.902 152.633 335.977 152.608Z" fill="white"/>
<path d="M339.205 164.83L341.206 164.196L340.914 166.122L340.852 166.545L340.268 165.936L339.205 164.83Z" fill="#EFC8C4"/>
<path d="M340.268 165.936C340.303 165.892 340.346 165.856 340.395 165.829C340.424 165.811 340.458 165.802 340.492 165.802C340.526 165.802 340.56 165.811 340.589 165.829C340.617 165.863 340.64 165.901 340.659 165.941C340.686 165.986 340.723 166.025 340.767 166.054C340.811 166.083 340.862 166.102 340.914 166.109L340.852 166.521L340.268 165.936Z" fill="#727A9C"/>
<path d="M335.619 157.585C335.619 157.585 342.771 157.544 341.087 160.584C339.403 163.624 336.772 163.991 336.772 163.991L335.619 157.585Z" fill="#FFB0B1"/>
<path d="M291.138 21.1528H290.829C278.542 21.1528 267.676 27.6484 261.426 37.2335C255.176 27.6484 244.309 21.1528 232.023 21.1528H231.714C222.493 21.2406 213.68 24.9605 207.189 31.5042C200.698 38.0478 197.054 46.8864 197.049 56.0992C197.049 67.5395 202.064 83.7724 211.843 97.1298C230.475 122.582 261.426 144.849 261.426 144.849C261.426 144.849 292.377 122.586 311.005 97.1298C320.788 83.7724 325.799 67.5395 325.799 56.0992C325.794 46.8871 322.151 38.0491 315.66 31.5056C309.17 24.9621 300.358 21.2417 291.138 21.1528ZM286.72 99.0879C285.32 99.0826 283.955 98.6547 282.804 97.8603C281.652 97.0659 280.768 95.9423 280.268 94.6368H272.922C272.438 94.6338 271.968 94.48 271.576 94.1968C271.184 93.9136 270.89 93.5152 270.736 93.0571L268.479 86.2653L261.339 111.191C261.2 111.67 260.909 112.092 260.51 112.393C260.11 112.693 259.624 112.856 259.124 112.857H258.98C258.458 112.831 257.961 112.628 257.572 112.281C257.182 111.933 256.923 111.463 256.839 110.948L249.481 66.7332L244.104 92.8967C243.98 93.3937 243.694 93.8352 243.29 94.1506C242.886 94.466 242.389 94.6372 241.876 94.6368H231.529C231.219 94.6499 230.909 94.6002 230.618 94.4907C230.328 94.3811 230.063 94.214 229.839 93.9994C229.615 93.7847 229.436 93.527 229.314 93.2417C229.193 92.9564 229.13 92.6495 229.13 92.3393C229.13 92.0291 229.193 91.7222 229.314 91.4369C229.436 91.1516 229.615 90.8939 229.839 90.6792C230.063 90.4646 230.328 90.2975 230.618 90.1879C230.909 90.0784 231.219 90.0287 231.529 90.0418H240.064L247.682 54.8651C247.807 54.345 248.109 53.8844 248.536 53.5622C248.963 53.2399 249.489 53.0759 250.024 53.0983C250.559 53.1206 251.07 53.3279 251.468 53.6847C251.867 54.0415 252.13 54.5256 252.211 55.0543L259.725 100.157L266.124 77.8568C266.257 77.3871 266.539 76.9731 266.927 76.6766C267.315 76.38 267.789 76.2168 268.277 76.2113H268.323C268.807 76.2115 269.278 76.3643 269.67 76.6479C270.062 76.9316 270.354 77.3316 270.505 77.791L274.585 90.0541H280.177C280.575 88.8474 281.298 87.7739 282.268 86.952C283.237 86.1302 284.415 85.592 285.672 85.3969C286.928 85.2017 288.214 85.3572 289.388 85.8462C290.562 86.3352 291.577 87.1386 292.323 88.1678C293.068 89.197 293.514 90.4119 293.612 91.6786C293.71 92.9452 293.456 94.2142 292.878 95.3456C292.299 96.477 291.419 97.4268 290.335 98.0901C289.25 98.7533 288.004 99.1044 286.732 99.1044L286.72 99.0879Z" fill="#2C3A40"/>
</g>
<defs>
<linearGradient id="paint0_linear_7_188" x1="147.219" y1="318.762" x2="147.219" y2="65.6267" gradientUnits="userSpaceOnUse">
<stop stop-color="#808080" stop-opacity="0.25"/>
<stop offset="0.54" stop-color="#808080" stop-opacity="0.12"/>
<stop offset="1" stop-color="#808080" stop-opacity="0.1"/>
</linearGradient>
<linearGradient id="paint1_linear_7_188" x1="91909.4" y1="190994" x2="91909.4" y2="61057.5" gradientUnits="userSpaceOnUse">
<stop stop-color="#808080" stop-opacity="0.25"/>
<stop offset="0.54" stop-color="#808080" stop-opacity="0.12"/>
<stop offset="1" stop-color="#808080" stop-opacity="0.1"/>
</linearGradient>
<clipPath id="clip0_7_188">
<rect width="455" height="322" fill="white" transform="translate(0.5)"/>
</clipPath>
</defs>
</svg>
