<svg width="60" height="60" viewBox="0 0 60 60" fill="none" xmlns="http://www.w3.org/2000/svg">
<g clip-path="url(#clip0_153_931)">
<path d="M59.7798 50.0675L57.1373 35.1675C58.2261 34.1843 59.0483 32.9416 59.5274 31.555C60.0065 30.1684 60.1269 28.6831 59.8773 27.2375C59.6278 25.7919 59.0164 24.4329 58.1002 23.2872C57.184 22.1415 55.9927 21.2463 54.6373 20.685C53.6388 14.9689 50.6831 9.77818 46.2768 6.00262C41.8704 2.22705 36.288 0.101835 30.4864 -0.00870462C24.6848 -0.119245 19.0255 1.79178 14.4785 5.39675C9.93157 9.00173 6.78024 14.0761 5.56477 19.75L3.74977 30H7.49977C11.9887 29.9724 16.4153 28.9477 20.4598 27C20.1637 27.5362 20.0056 28.1376 19.9998 28.75C19.9964 29.4782 20.205 30.1915 20.6003 30.8031C20.9955 31.4146 21.5603 31.8978 22.2255 32.1938C22.8908 32.4898 23.6279 32.5856 24.3467 32.4697C25.0656 32.3538 25.7352 32.0311 26.2737 31.541C26.8122 31.0509 27.1964 30.4146 27.3794 29.7099C27.5624 29.0051 27.5362 28.2623 27.3041 27.5721C27.072 26.882 26.644 26.2743 26.0723 25.8233C25.5006 25.3724 24.81 25.0976 24.0848 25.0325C29.4187 21.7046 33.9359 17.2198 37.3023 11.91C35.8301 11.0928 34.2299 10.5315 32.5698 10.25C28.7248 15.9475 20.5423 23.9075 9.73227 24.8975L10.4698 20.725C11.4905 16.0925 14.1245 11.9736 17.9016 9.10371C21.6786 6.23386 26.3528 4.79995 31.0894 5.05803C35.826 5.3161 40.3167 7.24935 43.7596 10.5126C47.2025 13.7758 49.3734 18.1565 49.8848 22.8725L50.0798 24.7375L51.9248 25.07C52.8356 25.2482 53.648 25.7578 54.2049 26.5002C54.7618 27.2427 55.0236 28.1653 54.9396 29.0896C54.8556 30.0139 54.4319 30.8742 53.7503 31.5041C53.0688 32.1341 52.1778 32.4889 51.2498 32.5C51.0348 32.5 48.5323 32.0625 48.5323 32.0625L47.8273 34.0625C45.5348 40.555 37.8248 47.5 29.9998 47.5C22.8473 47.5 15.8048 41.6925 12.8948 35.75L11.6198 42.9475C13.9971 45.8615 16.9427 48.2611 20.2773 50H19.9998V55H8.09477C7.63059 54.9984 7.17267 54.8928 6.75472 54.6908C6.33676 54.4889 5.9694 54.1958 5.67966 53.8332C5.38992 53.4705 5.18518 53.0475 5.0805 52.5953C4.97581 52.143 4.97386 51.6731 5.07477 51.22L7.94977 34.97C7.79977 34.97 7.65227 34.9975 7.49977 34.9975H2.86727L0.16227 50.2875C-0.0775282 51.4634 -0.0528706 52.6779 0.234457 53.8431C0.521786 55.0083 1.0646 56.0951 1.82359 57.0247C2.58259 57.9543 3.53879 58.7035 4.62296 59.2181C5.70714 59.7327 6.89217 59.9998 8.09227 60H24.9998V51.835C28.2741 52.7217 31.7254 52.7217 34.9998 51.835V60H51.9048C53.1411 60.0038 54.3617 59.7224 55.4717 59.1779C56.5817 58.6333 57.5511 57.8401 58.3048 56.86C59.0503 55.9142 59.5706 54.8109 59.8261 53.634C60.0817 52.4571 60.0659 51.2374 59.7798 50.0675ZM54.3498 53.8C54.0619 54.1745 53.6916 54.4776 53.2675 54.6857C52.8435 54.8939 52.3771 55.0014 51.9048 55H39.9998V49.885C45.1601 47.1108 49.3034 42.7661 51.8298 37.48C52.0423 37.4675 52.2423 37.4075 52.4498 37.38L54.8973 51.13C55.018 51.5872 55.0313 52.066 54.9364 52.5292C54.8414 52.9923 54.6406 53.4273 54.3498 53.8ZM36.2498 32.5C35.5081 32.5 34.7831 32.2801 34.1664 31.868C33.5497 31.456 33.0691 30.8703 32.7852 30.1851C32.5014 29.4999 32.4271 28.7459 32.5718 28.0184C32.7165 27.291 33.0737 26.6228 33.5981 26.0984C34.1226 25.5739 34.7908 25.2168 35.5182 25.0721C36.2456 24.9274 36.9996 25.0016 37.6848 25.2855C38.3701 25.5693 38.9557 26.0499 39.3678 26.6666C39.7798 27.2833 39.9998 28.0083 39.9998 28.75C39.9998 29.7446 39.6047 30.6984 38.9014 31.4017C38.1982 32.1049 37.2443 32.5 36.2498 32.5Z" fill="#2C3A40"/>
</g>
<defs>
<clipPath id="clip0_153_931">
<rect width="60" height="60" fill="white"/>
</clipPath>
</defs>
</svg>
