<svg width="159" height="159" viewBox="0 0 159 159" fill="none" xmlns="http://www.w3.org/2000/svg">
<rect width="159" height="159" fill="#395959"/>
<g clip-path="url(#clip0_38_313)">
<path d="M10 137.417H149V149H10V137.417ZM149 55.8063V67.9167H131.625V114.25H143.208V125.833H15.7917V114.25H27.375V67.9167H10V55.8063C9.99942 52.6848 10.8398 49.6209 12.4327 46.9364C14.0256 44.252 16.3123 42.0463 19.0524 40.5511L71.1774 12.1198C73.729 10.7232 76.5911 9.99115 79.5 9.99115C82.4089 9.99115 85.271 10.7232 87.8226 12.1198L139.948 40.5511C142.688 42.0463 144.974 44.252 146.567 46.9364C148.16 49.6209 149.001 52.6848 149 55.8063ZM38.9583 114.25H56.3333V67.9167H38.9583V114.25ZM67.9167 67.9167V114.25H91.0833V67.9167H67.9167ZM120.042 67.9167H102.667V114.25H120.042V67.9167ZM137.417 55.8063C137.417 54.7658 137.137 53.7445 136.606 52.8497C136.075 51.9549 135.313 51.2196 134.399 50.7212L82.2742 22.2899C81.4233 21.8256 80.4694 21.5823 79.5 21.5823C78.5306 21.5823 77.5767 21.8256 76.7258 22.2899L24.6008 50.7212C23.6874 51.2196 22.9252 51.9549 22.3942 52.8497C21.8633 53.7445 21.5831 54.7658 21.5833 55.8063V56.3334H137.417V55.8063Z" fill="#E0E0E0"/>
</g>
<defs>
<clipPath id="clip0_38_313">
<rect width="139" height="139" fill="white" transform="translate(10 10)"/>
</clipPath>
</defs>
</svg>
