<svg width="159" height="159" viewBox="0 0 159 159" fill="none" xmlns="http://www.w3.org/2000/svg">
<rect width="159" height="159" fill="#395959"/>
<path d="M110.532 73.1995C107.932 72.2613 105.233 72.0289 102.537 72.5002C101.586 72.6609 100.739 72.6913 100.016 72.5849C100.001 72.5827 99.9832 72.5806 99.9702 72.5806C98.363 72.3807 97.0012 71.5967 95.8827 70.261C95.8805 70.2588 95.8805 70.2545 95.8784 70.2523C95.874 70.248 95.8697 70.2458 95.8653 70.2414C95.1356 69.3618 94.5079 68.252 93.9954 66.8924C93.7369 66.2039 94.1452 65.485 94.6534 65.0876C95.8805 64.145 96.9925 62.7572 97.959 60.9523C99.4229 58.1919 100.196 54.9732 100.196 51.6415V38.9947C100.196 34.1384 98.6258 30.2312 95.5352 27.3838C89.8362 22.1388 80.9163 22.4667 79.5003 22.5536C78.0907 22.4645 69.1643 22.1388 63.4653 27.3838C60.3726 30.2312 58.8045 34.1362 58.8045 38.9947V51.6415C58.8045 54.9732 59.5776 58.1919 61.0458 60.961C62.008 62.7593 63.12 64.1472 64.3341 65.0789C64.8553 65.485 65.2658 66.2039 65.0073 66.8902C63.3328 71.3187 60.4573 73.2126 56.4762 72.5045C53.7635 72.0267 51.0682 72.2635 48.4685 73.2017C41.7487 75.632 37.2334 82.2823 37.2334 89.7536V118.029C37.2334 122.234 39.655 128.118 51.1986 132.283C58.7002 134.992 68.7516 136.484 79.5003 136.484C100.539 136.484 121.767 130.778 121.767 118.029V89.7492C121.767 82.2802 117.252 75.6299 110.532 73.1995ZM103.367 91.5128C105.372 91.5128 107.001 93.1417 107.001 95.1463C107.001 97.151 105.372 98.7777 103.367 98.7777C101.365 98.7777 99.7356 97.1488 99.7356 95.1463C99.7356 93.1439 101.365 91.5128 103.367 91.5128ZM64.8814 58.9151C63.7476 56.7802 63.1482 54.263 63.1482 51.6393V38.9925C63.1482 35.3568 64.2103 32.6094 66.3952 30.5917C71.0517 26.2914 79.2527 26.893 79.3243 26.8952C79.4438 26.906 79.5611 26.9038 79.6805 26.8952C79.7652 26.8908 87.9054 26.2653 92.5923 30.5787C94.7859 32.5985 95.8523 35.3503 95.8523 38.9925V51.6393C95.8523 54.263 95.255 56.778 94.1235 58.9064C93.4546 60.1574 92.7422 61.0761 91.9951 61.6495C89.8623 63.3132 89.0326 66.0345 89.9318 68.4214C90.3184 69.4509 90.7875 70.3739 91.3001 71.2296L79.4373 81.0856L67.2769 71.8551C67.9611 70.8409 68.5757 69.718 69.0666 68.4214C69.9657 66.0345 69.1361 63.3132 66.9881 61.6386C66.2562 61.0761 65.5438 60.1574 64.8814 58.9151ZM117.423 118.029C117.423 127.195 97.8852 132.14 79.5003 132.14C61.1153 132.14 41.5771 127.195 41.5771 118.029V89.7492C41.5771 84.1024 44.9392 79.094 49.9454 77.2827C51.192 76.8309 52.4713 76.605 53.7635 76.605C54.4151 76.605 55.0688 76.6637 55.7226 76.7788C55.8094 76.794 55.892 76.7896 55.9789 76.8027C54.7583 79.3611 54.111 82.1585 54.111 85.071V85.1644C50.1604 86.1417 47.211 89.6928 47.211 93.9409V101.13C47.211 102.329 48.1818 103.302 49.3829 103.302C50.5839 103.302 51.5547 102.329 51.5547 101.13V93.9409C51.5547 91.3369 53.6745 89.2171 56.2786 89.2171C58.8848 89.2171 61.0046 91.3369 61.0046 93.9409V101.13C61.0046 102.329 61.9754 103.302 63.1764 103.302C64.3775 103.302 65.3483 102.329 65.3483 101.13V93.9409C65.3483 89.6949 62.4033 86.1483 58.4548 85.1666V85.071C58.4548 81.9544 59.4256 79.0136 61.2022 76.4964C62.299 76.1728 63.3198 75.6798 64.258 75.0152L78.1863 85.5879C78.575 85.8833 79.0377 86.031 79.4981 86.031C79.9933 86.031 80.4841 85.8637 80.8859 85.5293L94.0974 74.5504C95.4201 75.6451 96.9361 76.3748 98.6019 76.7201C100.27 79.2135 101.189 82.0716 101.189 85.071V87.5079C97.8548 88.4635 95.3919 91.5063 95.3919 95.1442C95.3919 99.5422 98.9689 103.119 103.367 103.119C107.765 103.119 111.344 99.5422 111.344 95.1442C111.344 91.5019 108.875 88.4548 105.532 87.5035V85.071C105.532 82.152 104.874 79.3307 103.634 76.7397C105.469 76.4769 107.292 76.6441 109.055 77.2827C114.061 79.0918 117.423 84.1024 117.423 89.7492V118.029V118.029Z" fill="#E0E0E0"/>
<path d="M93.7415 104.965H87.0782V98.3019C87.0782 97.103 86.1074 96.13 84.9063 96.13H74.0969C72.8959 96.13 71.925 97.103 71.925 98.3019V104.965H65.2617C64.0607 104.965 63.0898 105.938 63.0898 107.137V117.946C63.0898 119.145 64.0607 120.118 65.2617 120.118H71.925V126.76C71.925 127.959 72.8959 128.932 74.0969 128.932H84.9063C86.1074 128.932 87.0782 127.959 87.0782 126.76V120.118H93.7415C94.9426 120.118 95.9134 119.145 95.9134 117.946V107.137C95.9134 105.938 94.9404 104.965 93.7415 104.965ZM91.5696 115.775H84.9063C83.7053 115.775 82.7344 116.748 82.7344 117.946V124.588H76.2688V117.946C76.2688 116.748 75.298 115.775 74.0969 115.775H67.4336V109.309H74.0969C75.298 109.309 76.2688 108.336 76.2688 107.137V100.474H82.7344V107.137C82.7344 108.336 83.7053 109.309 84.9063 109.309H91.5696V115.775Z" fill="#E0E0E0"/>
</svg>
