<svg width="194" height="194" viewBox="0 0 194 194" fill="none" xmlns="http://www.w3.org/2000/svg">
<rect width="194" height="194" fill="#395959"/>
<g clip-path="url(#clip0_34_747)">
<path d="M184 75.25C184.017 71.2587 182.934 67.3399 180.872 63.9226C178.81 60.5053 175.847 57.7213 172.309 55.8755C168.77 54.0297 164.791 53.1933 160.809 53.4578C156.826 53.7223 152.993 55.0776 149.73 57.3752C146.466 59.6728 143.898 62.8241 142.305 66.4841C140.713 70.1441 140.159 74.1717 140.703 78.1257C141.248 82.0797 142.869 85.8077 145.391 88.9015C147.913 91.9953 151.237 94.3355 155 95.666V126C155 137.537 150.417 148.601 142.259 156.759C134.101 164.917 123.037 169.5 111.5 169.5C99.9631 169.5 88.8987 164.917 80.7409 156.759C72.583 148.601 68 137.537 68 126V125.42C80.0646 123.67 91.0971 117.638 99.0834 108.428C107.07 99.2167 111.477 87.4409 111.5 75.25V31.75C111.5 25.9815 109.208 20.4493 105.13 16.3704C101.051 12.2915 95.5185 10 89.75 10L68 10V24.5H89.75C91.6728 24.5 93.5169 25.2638 94.8765 26.6235C96.2362 27.9831 97 29.8272 97 31.75V75.25C97 84.8641 93.1808 94.0844 86.3826 100.883C79.5844 107.681 70.3641 111.5 60.75 111.5C51.1359 111.5 41.9156 107.681 35.1174 100.883C28.3192 94.0844 24.5 84.8641 24.5 75.25V31.75C24.5 29.8272 25.2638 27.9831 26.6235 26.6235C27.9831 25.2638 29.8272 24.5 31.75 24.5H53.5V10H31.75C25.9815 10 20.4493 12.2915 16.3704 16.3704C12.2915 20.4493 10 25.9815 10 31.75L10 75.25C10.0233 87.4409 14.4304 99.2167 22.4166 108.428C30.4029 117.638 41.4354 123.67 53.5 125.42V126C53.5 141.383 59.6107 156.135 70.4878 167.012C81.3649 177.889 96.1174 184 111.5 184C126.883 184 141.635 177.889 152.512 167.012C163.389 156.135 169.5 141.383 169.5 126V95.666C173.726 94.1719 177.387 91.4086 179.983 87.7541C182.578 84.0996 183.981 79.7324 184 75.25ZM162.25 82.5C160.816 82.5 159.414 82.0748 158.222 81.2782C157.03 80.4815 156.101 79.3492 155.552 78.0245C155.003 76.6997 154.86 75.242 155.139 73.8356C155.419 72.4292 156.11 71.1374 157.123 70.1235C158.137 69.1095 159.429 68.419 160.836 68.1393C162.242 67.8596 163.7 68.0031 165.024 68.5519C166.349 69.1006 167.482 70.0299 168.278 71.2221C169.075 72.4144 169.5 73.8161 169.5 75.25C169.5 77.1728 168.736 79.0169 167.377 80.3765C166.017 81.7362 164.173 82.5 162.25 82.5Z" fill="#E0E0E0"/>
</g>
<defs>
<clipPath id="clip0_34_747">
<rect width="174" height="174" fill="white" transform="translate(10 10)"/>
</clipPath>
</defs>
</svg>
