<svg width="159" height="159" viewBox="0 0 159 159" fill="none" xmlns="http://www.w3.org/2000/svg">
<rect width="159" height="159" fill="#395959"/>
<path d="M140.514 52.4184L148.796 44.3101L115.494 10.2957L107.212 18.404L120.278 31.7248L107.658 43.5456L102.376 38.2578C100.763 36.6441 98.8471 35.364 96.7389 34.4906C94.6307 33.6173 92.371 33.1678 90.0891 33.1678C87.8071 33.1678 85.5475 33.6173 83.4393 34.4906C81.331 35.364 79.4155 36.6441 77.802 38.2578L27.374 88.6859V123.436L10.248 140.562L18.4375 148.751L35.5634 131.625H70.3134L120.741 81.1972C122.355 79.5838 123.635 77.6683 124.509 75.56C125.382 73.4518 125.832 71.1922 125.832 68.9102C125.832 66.6283 125.382 64.3686 124.509 62.2604C123.635 60.1522 122.355 58.2367 120.741 56.6232L115.853 51.7408L128.381 40.0243L140.514 52.4184ZM112.552 73.0078L65.5179 120.042H38.9573V98.5491L50.0658 109.657L58.2552 101.468L44.6158 87.8287L53.8014 78.6431L67.4408 92.2825L75.6302 84.0931L61.9908 70.4537L71.1764 61.2681L84.8158 74.9075L93.0052 66.7181L79.3658 53.0787L85.9915 46.4472C86.5294 45.9088 87.1681 45.4816 87.8712 45.1901C88.5743 44.8986 89.328 44.7486 90.0891 44.7486C90.8502 44.7486 91.6038 44.8986 92.3069 45.1901C93.01 45.4816 93.6488 45.9088 94.1867 46.4472L112.552 64.8126C113.091 65.3505 113.518 65.9893 113.809 66.6924C114.101 67.3955 114.251 68.1491 114.251 68.9102C114.251 69.6713 114.101 70.425 113.809 71.1281C113.518 71.8312 113.091 72.4699 112.552 73.0078Z" fill="#E0E0E0"/>
</svg>
